<svg viewBox="0 0 100 100" xmlns="http://www.w3.org/2000/svg" preserveAspectRatio="xMidYMid" width="200" height="200" style="margin: initial; display: block; shape-rendering: auto; background: rgb(255, 255, 255);">
  <g class="ldl-scale" style="transform-origin: 50% 50%; transform: rotate(0deg) scale(0.8, 0.8);">
    <g class="ldl-ani">
      <g class="ldl-layer">
        <g class="ldl-ani" style="transform-box: view-box; opacity: 1; transform-origin: 50px 50px;">
          <path fill="#a0c8d7" d="M83.923 41.395a34.775 34.775 0 0 0-3.849-9.291c-.769-1.289-.587-2.928.474-3.989l.826-.826a3.256 3.256 0 0 0 0-4.604l-4.058-4.058a3.256 3.256 0 0 0-4.604 0l-.826.826c-1.061 1.061-2.7 1.243-3.989.474a34.775 34.775 0 0 0-9.291-3.849 3.26 3.26 0 0 1-2.48-3.154v-1.167a3.256 3.256 0 0 0-3.256-3.256h-5.739a3.256 3.256 0 0 0-3.256 3.256v1.167a3.26 3.26 0 0 1-2.48 3.154 34.775 34.775 0 0 0-9.291 3.849c-1.289.769-2.928.587-3.989-.474l-.826-.826a3.256 3.256 0 0 0-4.604 0l-4.058 4.058a3.256 3.256 0 0 0 0 4.604l.826.826c1.061 1.061 1.243 2.7.474 3.989a34.775 34.775 0 0 0-3.849 9.291 3.26 3.26 0 0 1-3.154 2.48h-1.167a3.256 3.256 0 0 0-3.256 3.256v5.739a3.256 3.256 0 0 0 3.256 3.256h1.167a3.26 3.26 0 0 1 3.154 2.48 34.775 34.775 0 0 0 3.849 9.291c.769 1.289.587 2.928-.474 3.989l-.826.826a3.256 3.256 0 0 0 0 4.604l4.058 4.058a3.256 3.256 0 0 0 4.604 0l.826-.826c1.061-1.061 2.7-1.243 3.989-.474a34.775 34.775 0 0 0 9.291 3.849 3.26 3.26 0 0 1 2.48 3.154v1.167a3.256 3.256 0 0 0 3.256 3.256h5.739a3.256 3.256 0 0 0 3.256-3.256v-1.167a3.26 3.26 0 0 1 2.48-3.154 34.775 34.775 0 0 0 9.291-3.849c1.289-.769 2.928-.587 3.989.474l.826.826a3.256 3.256 0 0 0 4.604 0l4.058-4.058a3.256 3.256 0 0 0 0-4.604l-.826-.826c-1.061-1.061-1.243-2.7-.474-3.989a34.775 34.775 0 0 0 3.849-9.291 3.26 3.26 0 0 1 3.154-2.48h1.167A3.256 3.256 0 0 0 91.5 52.87v-5.739a3.256 3.256 0 0 0-3.256-3.256h-1.167a3.26 3.26 0 0 1-3.154-2.48zM71.47 62.808a25.113 25.113 0 0 1-8.662 8.662 24.834 24.834 0 0 1-6.683 2.771c-1.96.494-4.011.759-6.125.759s-4.165-.265-6.125-.759a24.866 24.866 0 0 1-6.683-2.771 25.113 25.113 0 0 1-8.662-8.662 24.834 24.834 0 0 1-2.771-6.683C25.265 54.165 25 52.114 25 50s.265-4.165.759-6.125a24.866 24.866 0 0 1 2.771-6.683 25.113 25.113 0 0 1 8.662-8.662 24.834 24.834 0 0 1 6.683-2.771C45.835 25.265 47.886 25 50 25s4.165.265 6.125.759c2.382.6 4.628 1.543 6.683 2.771a25.113 25.113 0 0 1 8.662 8.662 24.834 24.834 0 0 1 2.771 6.683c.494 1.96.759 4.011.759 6.125s-.265 4.165-.759 6.125a24.834 24.834 0 0 1-2.771 6.683z" style="stroke-width: 1; fill: rgb(160, 200, 215);"></path>
          <animateTransform attributeName="transform" type="rotate" from="0 50 50" to="360 50 50" dur="2s" repeatCount="indefinite"/>
        </g>
      </g>
    </g>
  </g>
</svg>
