<svg xmlns="http://www.w3.org/2000/svg" xmlns:xlink="http://www.w3.org/1999/xlink" version="1.1" x="0px" y="0px" viewBox="0 0 93 93" style="enable-background:new 0 0 100 100;" xml:space="preserve" fill="#2d72b8" width="85px" height="85px"><g><path d="M52.4707031,16.7915039c-2.6869507,0-5.3297729,0.319458-7.8878784,0.9151001l-0.2420044-0.8716431   c-0.2345581-0.8466187-0.7515259-1.5824585-1.4423828-2.111084l0.3022461-0.001709H42.895874   c-0.1813965-0.1386108-0.367981-0.2717285-0.5726318-0.378418c-0.9755859-0.5087891-2.1269531-0.5908203-3.1601563-0.2260742   c-15.0141602,5.3061523-25.418457,18.9912109-26.5058594,34.8647461c-0.0751953,1.0947266,0.3129883,2.1845703,1.0654297,2.9902344   c0.7583008,0.8120117,1.8295898,1.277832,2.9389648,1.277832h0.8881836   c0.7891235,18.5830688,16.147522,33.4594727,34.9208984,33.4594727c19.2763672,0,34.9589844-15.6826172,34.9589844-34.9594727   C87.4296875,32.4741211,71.7470703,16.7915039,52.4707031,16.7915039z M15.9155273,49.925293   c-0.1098633-0.1176758-0.2905273-0.3701172-0.2651367-0.7373047c1.0053711-14.6791992,10.6274414-27.3349609,24.512207-32.2416992   c0.1132813-0.0400391,0.2202148-0.0556641,0.3178711-0.0556641c0.199707,0,0.3613281,0.0639648,0.456543,0.1137695   c0.2543945,0.1323242,0.4365234,0.3569336,0.5131836,0.6328125l0.6306763,2.2713623   c0.0003662,0.0013428,0.0003052,0.0026855,0.0006714,0.0040283c0.0003662,0.0012817,0.0010376,0.0022583,0.0014038,0.00354   l3.4639282,12.4759521c0.1367188,0.4926758-0.1347656,1.0048828-0.6455078,1.2182617   c-6.5390625,2.7314453-11.1171875,8.7900391-11.9467773,15.8110352c-0.0546875,0.4648438-0.487793,0.8291016-0.9853516,0.8291016   H16.6616211C16.3764648,50.2504883,16.1113281,50.1347656,15.9155273,49.925293z M52.4707031,83.7099609   c-17.1190796,0-31.1345215-13.5309448-31.9208984-30.4594727h11.4194336c2.0258789,0,3.7299805-1.4946289,3.9648438-3.4770508   c0.7026367-5.9472656,4.5820313-11.0800781,10.1235352-13.3945313c1.8950195-0.7915039,2.918457-2.8505859,2.3798828-4.7895508   L45.385498,20.59729c2.2967529-0.5251465,4.6702881-0.8057861,7.0852051-0.8057861   c17.6220703,0,31.9589844,14.3369141,31.9589844,31.9589844C84.4296875,69.3730469,70.0927734,83.7099609,52.4707031,83.7099609z"/><path d="M52.4707031,36.7807617c-8.2543945,0-14.9697266,6.715332-14.9697266,14.9697266   s6.715332,14.9702148,14.9697266,14.9702148s14.9697266-6.7158203,14.9697266-14.9702148   S60.7250977,36.7807617,52.4707031,36.7807617z M52.4707031,64.7207031c-7.1513672,0-12.9697266-5.8183594-12.9697266-12.9702148   c0-7.1513672,5.8183594-12.9697266,12.9697266-12.9697266s12.9697266,5.8183594,12.9697266,12.9697266   C65.4404297,58.9023438,59.6220703,64.7207031,52.4707031,64.7207031z"/><path d="M47.1763306,57.6350708c-0.9161377,0-1.6588745,0.7426758-1.6588745,1.6588745   c0,0.9161377,0.7427368,1.6588135,1.6588745,1.6588135s1.6588135-0.7426758,1.6588135-1.6588135   C48.835144,58.3777466,48.0924683,57.6350708,47.1763306,57.6350708z"/><path d="M57.7677002,57.6350708c-0.9161377,0-1.6588135,0.7426758-1.6588135,1.6588745   c0,0.9161377,0.7426758,1.6588135,1.6588135,1.6588135c0.9161987,0,1.6588745-0.7426758,1.6588745-1.6588135   C59.4265747,58.3777466,58.6838989,57.6350708,57.7677002,57.6350708z"/><path d="M59.4174194,49.1860352c0,0.9161377,0.7427368,1.6588135,1.6588745,1.6588135s1.6588135-0.7426758,1.6588135-1.6588135   c0-0.9161987-0.7426758-1.6588745-1.6588135-1.6588745S59.4174194,48.2698364,59.4174194,49.1860352z"/><path d="M43.8651733,47.5271606c-0.9161377,0-1.6588745,0.7426758-1.6588745,1.6588745   c0,0.9161377,0.7427368,1.6588135,1.6588745,1.6588135s1.6588135-0.7426758,1.6588135-1.6588135   C45.5239868,48.2698364,44.781311,47.5271606,43.8651733,47.5271606z"/><path d="M30.6151733,49.1816406c0.739502,0,1.3389893-0.5994873,1.3389893-1.3389282   c0-0.739502-0.5994873-1.3389893-1.3389893-1.3389893c-0.7394409,0-1.3389282,0.5994873-1.3389282,1.3389893   C29.2762451,48.5821533,29.8757324,49.1816406,30.6151733,49.1816406z"/><path d="M42.8112183,33.2451172c0.739502,0,1.3389893-0.5994873,1.3389893-1.3389282   c0-0.739502-0.5994873-1.3389893-1.3389893-1.3389893c-0.7394409,0-1.3389282,0.5994873-1.3389282,1.3389893   C41.47229,32.6456299,42.0717773,33.2451172,42.8112183,33.2451172z"/><circle cx="39.1781616" cy="20.3948364" r="1.65448"/><path d="M20.2850342,47.5271606c0-0.9136963-0.7407227-1.65448-1.6544189-1.65448c-0.9137573,0-1.65448,0.7407837-1.65448,1.65448   c0,0.9137573,0.7407227,1.65448,1.65448,1.65448C19.5443115,49.1816406,20.2850342,48.440918,20.2850342,47.5271606z"/><path d="M52.4707031,44.5840454c0.9161987,0,1.6588745-0.7427368,1.6588745-1.6588745s-0.7426758-1.6588135-1.6588745-1.6588135   c-0.9161377,0-1.6588135,0.7426758-1.6588135,1.6588135S51.5545654,44.5840454,52.4707031,44.5840454z"/><path d="M57.9863281,51.7504883c0-3.0415039-2.4741211-5.515625-5.515625-5.515625s-5.515625,2.4741211-5.515625,5.515625   s2.4741211,5.5161133,5.515625,5.5161133S57.9863281,54.7919922,57.9863281,51.7504883z M52.4707031,55.2666016   c-1.9384766,0-3.515625-1.5771484-3.515625-3.5161133c0-1.9384766,1.5771484-3.515625,3.515625-3.515625   s3.515625,1.5771484,3.515625,3.515625C55.9863281,53.6894531,54.4091797,55.2666016,52.4707031,55.2666016z"/></g></svg>