<svg xmlns="http://www.w3.org/2000/svg" xmlns:xlink="http://www.w3.org/1999/xlink" version="1.1" x="0px" y="0px" viewBox="0 0 45 45" style="enable-background:new 0 0 48 48;" xml:space="preserve" fill="#2d72b8" width="85px" height="85px"><g><path d="M42.94,16.15c0-0.01-0.01-0.01-0.01-0.02c-1.03-2.47-2.53-4.7-4.39-6.57c-0.01-0.02-0.02-0.04-0.04-0.05   c-0.02-0.02-0.04-0.02-0.05-0.04c-1.87-1.86-4.1-3.36-6.58-4.39c-0.01,0-0.01-0.01-0.02-0.01c-0.01-0.01-0.02,0-0.04-0.01   C29.4,4.06,26.76,3.5,24,3.5c-2.76,0-5.4,0.56-7.81,1.55c-0.01,0-0.03,0-0.04,0.01c-0.01,0-0.01,0.01-0.02,0.01   c-2.47,1.03-4.7,2.53-6.58,4.39C9.54,9.48,9.52,9.49,9.5,9.5S9.48,9.54,9.47,9.56c-1.86,1.87-3.36,4.1-4.39,6.58   c0,0.01-0.01,0.01-0.01,0.02c-0.01,0.01,0,0.03-0.01,0.04C4.06,18.6,3.5,21.24,3.5,24s0.56,5.4,1.55,7.81c0,0.01,0,0.03,0.01,0.04   c0,0.01,0.01,0.01,0.01,0.01c1.03,2.48,2.53,4.71,4.4,6.58c0.01,0.02,0.02,0.04,0.03,0.05s0.04,0.02,0.05,0.03   c1.87,1.86,4.1,3.36,6.58,4.39c0.01,0,0.01,0.01,0.02,0.01c0.01,0.01,0.03,0,0.04,0.01c2.41,1,5.04,1.55,7.81,1.55   c2.76,0,5.4-0.56,7.81-1.55c0.01,0,0.03,0,0.04-0.01c0.01,0,0.01-0.01,0.02-0.01c2.47-1.03,4.7-2.53,6.58-4.39   c0.02-0.01,0.04-0.02,0.05-0.04c0.02-0.02,0.02-0.04,0.04-0.05c1.86-1.87,3.36-4.11,4.4-6.58c0-0.01,0.01-0.01,0.01-0.01   c0.01-0.01,0-0.03,0.01-0.04c1-2.41,1.55-5.04,1.55-7.81s-0.56-5.4-1.55-7.81C42.94,16.18,42.94,16.17,42.94,16.15z M40.25,24.5   h3.22c-0.06,2.28-0.51,4.47-1.29,6.49l-2.98-1.23c-0.25-0.1-0.55,0.02-0.65,0.27c-0.11,0.26,0.02,0.55,0.27,0.65l2.98,1.24   c-0.91,2.04-2.16,3.89-3.69,5.5l-2.28-2.27c-0.2-0.2-0.51-0.2-0.71,0s-0.2,0.51,0,0.71l2.28,2.27c-1.6,1.52-3.45,2.77-5.5,3.69   l-1.24-2.98c-0.11-0.25-0.4-0.38-0.65-0.27c-0.25,0.11-0.38,0.4-0.27,0.65l1.23,2.98c-2.02,0.78-4.21,1.23-6.49,1.29v-3.22   c0-0.28-0.22-0.5-0.5-0.5s-0.5,0.22-0.5,0.5v3.22c-2.28-0.06-4.47-0.51-6.49-1.29l1.23-2.98c0.11-0.26-0.02-0.55-0.27-0.65   c-0.25-0.1-0.55,0.02-0.65,0.27l-1.24,2.98c-2.04-0.91-3.9-2.16-5.5-3.69l2.27-2.27c0.2-0.2,0.2-0.51,0-0.71s-0.51-0.2-0.71,0   l-2.27,2.27c-1.52-1.6-2.77-3.45-3.69-5.5l2.98-1.24c0.25-0.11,0.38-0.4,0.27-0.65c-0.11-0.26-0.4-0.37-0.65-0.27l-2.98,1.23   c-0.78-2.02-1.23-4.21-1.29-6.49h3.22c0.28,0,0.5-0.22,0.5-0.5s-0.22-0.5-0.5-0.5H4.53c0.06-2.28,0.51-4.47,1.29-6.49l2.98,1.23   c0.06,0.03,0.13,0.04,0.19,0.04c0.2,0,0.38-0.12,0.46-0.31c0.11-0.26-0.02-0.55-0.27-0.65L6.2,16.08c0.91-2.04,2.16-3.9,3.69-5.5   l2.27,2.27c0.1,0.1,0.23,0.15,0.35,0.15s0.26-0.05,0.35-0.15c0.2-0.2,0.2-0.51,0-0.71l-2.27-2.27c1.6-1.52,3.45-2.77,5.5-3.69   l1.24,2.98c0.08,0.19,0.27,0.31,0.46,0.31c0.06,0,0.13-0.01,0.19-0.04c0.25-0.11,0.38-0.4,0.27-0.65l-1.23-2.98   c2.02-0.78,4.21-1.23,6.49-1.29v3.22c0,0.28,0.22,0.5,0.5,0.5s0.5-0.22,0.5-0.5V4.53c2.28,0.06,4.47,0.51,6.49,1.29L29.76,8.8   c-0.11,0.26,0.02,0.55,0.27,0.65c0.06,0.03,0.13,0.04,0.19,0.04c0.2,0,0.38-0.12,0.46-0.31l1.24-2.98c2.04,0.91,3.9,2.16,5.5,3.69   l-2.28,2.27c-0.2,0.2-0.2,0.51,0,0.71c0.1,0.1,0.23,0.15,0.35,0.15s0.26-0.05,0.35-0.15l2.28-2.27c1.52,1.6,2.77,3.45,3.69,5.5   l-2.98,1.24c-0.25,0.11-0.38,0.4-0.27,0.65c0.08,0.19,0.27,0.31,0.46,0.31c0.06,0,0.13-0.01,0.19-0.04l2.98-1.23   c0.78,2.02,1.23,4.21,1.29,6.49h-3.22c-0.28,0-0.5,0.22-0.5,0.5S39.97,24.5,40.25,24.5z"/><path d="M34.97,17.04C34.97,17.04,34.97,17.04,34.97,17.04c-1.01-1.62-2.4-3.01-4.01-4.01C28.89,11.7,26.49,11,24,11   c-4.48,0-8.57,2.26-10.97,6.04c0,0,0,0,0,0c0,0,0,0,0,0c0,0,0,0,0,0c0,0,0,0,0,0c-0.82,1.25-1.39,2.64-1.71,4.12   C11.1,22.07,11,23.03,11,24s0.1,1.93,0.31,2.83c0.32,1.49,0.9,2.88,1.71,4.12c1.01,1.62,2.4,3.01,4.01,4.02   c1.25,0.82,2.64,1.4,4.12,1.72C22.07,36.9,23.03,37,24,37c0.97,0,1.93-0.1,2.83-0.31c1.49-0.32,2.88-0.9,4.12-1.71   c1.62-1.01,3.01-2.4,4.02-4.01c0.82-1.25,1.4-2.64,1.72-4.12C36.89,25.93,37,24.98,37,24s-0.11-1.93-0.31-2.83   C36.37,19.68,35.79,18.29,34.97,17.04z M35.71,26.62c-0.3,1.37-0.83,2.64-1.59,3.8c-0.93,1.49-2.21,2.77-3.71,3.71   c-1.15,0.75-2.43,1.28-3.8,1.58c-1.67,0.38-3.55,0.38-5.23,0c-1.37-0.3-2.64-0.83-3.8-1.59c-1.49-0.93-2.77-2.21-3.71-3.71   c-0.75-1.15-1.28-2.43-1.58-3.8C12.1,25.78,12,24.9,12,24s0.1-1.78,0.29-2.62c0.3-1.37,0.83-2.64,1.58-3.8c0,0,0,0,0,0c0,0,0,0,0,0   C16.08,14.09,19.87,12,24,12c2.29,0,4.51,0.65,6.42,1.87c1.49,0.93,2.77,2.21,3.7,3.7c0,0,0,0,0,0c0,0,0,0,0,0.01   c0.75,1.15,1.28,2.43,1.58,3.8C35.9,22.22,36,23.1,36,24S35.9,25.78,35.71,26.62z"/><path d="M24,19.75c-2.34,0-4.25,1.91-4.25,4.25s1.91,4.25,4.25,4.25c2.34,0,4.25-1.91,4.25-4.25S26.34,19.75,24,19.75z M24,27.25   c-1.79,0-3.25-1.46-3.25-3.25s1.46-3.25,3.25-3.25s3.25,1.46,3.25,3.25S25.79,27.25,24,27.25z"/><path d="M33.17,18.9c-0.46-0.85-1.04-1.63-1.74-2.33c-0.69-0.69-1.48-1.28-2.31-1.73c-0.67-0.39-1.4-0.7-2.19-0.93c0,0,0,0,0,0   c-0.02-0.01-0.04-0.01-0.06-0.02c-0.94-0.26-1.89-0.39-2.85-0.39c0,0-0.01,0-0.01,0c0,0-0.01,0-0.01,0c-0.95,0-1.9,0.13-2.85,0.39   c-0.02,0.01-0.04,0.01-0.06,0.02c0,0,0,0,0,0c-0.79,0.23-1.53,0.54-2.18,0.92c-0.85,0.46-1.64,1.04-2.33,1.74   c-0.69,0.7-1.28,1.48-1.73,2.31c0,0,0,0.01,0,0.01c0,0,0,0,0,0.01c0,0,0,0,0,0.01c-0.38,0.66-0.69,1.39-0.92,2.17c0,0,0,0,0,0   c-0.01,0.02-0.01,0.04-0.02,0.06c-0.26,0.95-0.39,1.91-0.39,2.86s0.13,1.91,0.39,2.86c0.01,0.02,0.01,0.04,0.02,0.06c0,0,0,0,0,0   c0.23,0.79,0.54,1.53,0.92,2.18c0.46,0.85,1.04,1.64,1.74,2.33c0.69,0.69,1.48,1.28,2.31,1.73c0.67,0.39,1.4,0.7,2.19,0.93   c0,0,0,0,0,0c0.02,0.01,0.04,0.01,0.06,0.02c0.95,0.26,1.91,0.39,2.86,0.39s1.91-0.13,2.86-0.39c0.02-0.01,0.04-0.01,0.06-0.02   c0,0,0,0,0,0c0.79-0.23,1.53-0.54,2.18-0.92c0.85-0.46,1.63-1.04,2.33-1.74c0.69-0.69,1.28-1.48,1.73-2.31   c0.39-0.66,0.7-1.4,0.93-2.19c0,0,0,0,0,0c0.01-0.02,0.02-0.04,0.02-0.06c0.26-0.95,0.39-1.91,0.39-2.86s-0.13-1.91-0.39-2.86   C33.88,20.33,33.56,19.57,33.17,18.9z M32.59,28.02l-0.79-0.79h1.13C32.82,27.5,32.71,27.76,32.59,28.02z M30.59,26.23   c-0.2,0-0.38,0.12-0.46,0.31s-0.03,0.4,0.11,0.54l1.85,1.85c-0.3,0.5-0.65,0.97-1.04,1.41l-0.51-0.51c-0.2-0.2-0.51-0.2-0.71,0   s-0.2,0.51,0,0.71l0.51,0.51c-0.44,0.39-0.91,0.74-1.41,1.04l-1.85-1.85c-0.14-0.14-0.36-0.19-0.54-0.11s-0.31,0.26-0.31,0.46v2.63   c-0.57,0.14-1.15,0.21-1.72,0.25v-0.71c0-0.28-0.22-0.5-0.5-0.5s-0.5,0.22-0.5,0.5v0.71c-0.58-0.03-1.15-0.11-1.73-0.25v-2.63   c0-0.2-0.12-0.38-0.31-0.46c-0.19-0.08-0.4-0.03-0.54,0.11l-1.85,1.85c-0.5-0.3-0.97-0.65-1.41-1.04l0.51-0.51   c0.2-0.2,0.2-0.51,0-0.71s-0.51-0.2-0.71,0l-0.51,0.51c-0.39-0.44-0.74-0.91-1.04-1.41l1.85-1.85c0.14-0.14,0.19-0.36,0.11-0.54   c-0.08-0.19-0.26-0.31-0.46-0.31h-2.63c-0.14-0.57-0.22-1.15-0.25-1.73h0.72c0.28,0,0.5-0.22,0.5-0.5s-0.22-0.5-0.5-0.5h-0.72   c0.03-0.58,0.11-1.15,0.25-1.73h2.63c0.2,0,0.38-0.12,0.46-0.31c0.08-0.19,0.03-0.4-0.11-0.54l-1.85-1.85   c0.3-0.5,0.65-0.97,1.04-1.41l0.51,0.51c0.1,0.1,0.23,0.15,0.35,0.15s0.26-0.05,0.35-0.15c0.2-0.2,0.2-0.51,0-0.71l-0.51-0.51   c0.44-0.39,0.91-0.74,1.41-1.04l1.85,1.85c0.1,0.1,0.22,0.15,0.35,0.15c0.06,0,0.13-0.01,0.19-0.04c0.19-0.08,0.31-0.26,0.31-0.46   v-2.63c0.57-0.14,1.15-0.22,1.73-0.25v0.71c0,0.28,0.22,0.5,0.5,0.5s0.5-0.22,0.5-0.5v-0.71c0.58,0.03,1.15,0.11,1.72,0.25v2.63   c0,0.2,0.12,0.38,0.31,0.46c0.06,0.03,0.13,0.04,0.19,0.04c0.13,0,0.26-0.05,0.35-0.15l1.85-1.85c0.5,0.3,0.97,0.65,1.41,1.04   l-0.51,0.51c-0.2,0.2-0.2,0.51,0,0.71c0.1,0.1,0.23,0.15,0.35,0.15s0.26-0.05,0.35-0.15l0.51-0.51c0.39,0.44,0.74,0.91,1.04,1.41   l-1.85,1.85c-0.14,0.14-0.19,0.36-0.11,0.54s0.26,0.31,0.46,0.31h2.63c0.14,0.57,0.22,1.15,0.25,1.73h-0.72   c-0.28,0-0.5,0.22-0.5,0.5s0.22,0.5,0.5,0.5h0.72c-0.03,0.58-0.11,1.15-0.25,1.73H30.59z M28.02,32.59   c-0.26,0.12-0.52,0.23-0.79,0.33v-1.13L28.02,32.59z M20.77,32.92c-0.27-0.1-0.54-0.21-0.79-0.33l0.79-0.79V32.92z M15.08,27.23   h1.13l-0.79,0.79C15.29,27.76,15.18,27.5,15.08,27.23z M15.41,19.98l0.79,0.79h-1.13C15.18,20.5,15.29,20.24,15.41,19.98z    M27.22,15.08c0.27,0.1,0.54,0.21,0.79,0.33l-0.79,0.79V15.08z M20.77,15.08v1.13l-0.79-0.79C20.24,15.29,20.5,15.18,20.77,15.08z    M32.59,19.98c0.12,0.26,0.23,0.52,0.33,0.79h-1.13L32.59,19.98z"/></g><text x="0" y="63" fill="#000000" font-size="5px" font-weight="bold" font-family="'Helvetica Neue', Helvetica, Arial-Unicode, Arial, Sans-serif">Created by Fahmihorizon</text><text x="0" y="68" fill="#000000" font-size="5px" font-weight="bold" font-family="'Helvetica Neue', Helvetica, Arial-Unicode, Arial, Sans-serif">from the Noun Project</text></svg>