<svg xmlns="http://www.w3.org/2000/svg" xmlns:xlink="http://www.w3.org/1999/xlink" version="1.1" x="0px" y="0px" viewBox="0 0 100 85" enable-background="new 0 0 100 100" xml:space="preserve" fill="#2d72b8" width="85px" height="85px"><g><path d="M-190,770"/><path d="M808.068,319.01c-1.047-0.391-2.184,0.172-2.555,1.211c-0.977,2.754-6.813,5.598-14.883,5.598    c-8.031,0-13.867-2.836-14.867-5.578c-0.379-1.035-1.531-1.57-2.563-1.191c-1.039,0.379-1.574,1.527-1.195,2.566    c1.766,4.828,9.426,8.203,18.625,8.203c9.25,0,16.922-3.395,18.652-8.254C809.654,320.521,809.107,319.381,808.068,319.01z"/></g><g><g><path d="M56.817,19.625H34.399c-3.313,0-6,2.691-6,6v12.281c0,3.309,2.688,6,6,6h22.418c3.309,0,6-2.691,6-6V25.625     C62.817,22.316,60.126,19.625,56.817,19.625z M58.817,37.906c0,1.102-0.895,2-2,2H34.399c-1.105,0-2-0.898-2-2V25.625     c0-1.102,0.895-2,2-2h22.418c1.105,0,2,0.898,2,2V37.906z"/><path d="M80.556,22.555l-5.582-1.926v4.23l4.277,1.477c5.039,1.738,4.75,4.758,4.672,5.43V70.32c0,1.258-1.023,2.281-2.281,2.281     s-2.281-1.023-2.281-2.281V44.414c0-3.582-2.914-6.496-6.5-6.496h-1.887V16c0-2.211-1.793-4-4-4h-42.52c-2.211,0-4,1.789-4,4     v67.938h-6.43c-1.102,0-2,0.891-2,2c0,1.102,0.898,2,2,2h63.379c1.105,0,2-0.898,2-2c0-1.109-0.895-2-2-2h-6.43v-42.02h1.887     c1.379,0,2.5,1.121,2.5,2.496V70.32c0,3.461,2.816,6.281,6.281,6.281c3.461,0,6.281-2.82,6.281-6.281l-0.035-38.18     C88.321,29.852,87.353,24.898,80.556,22.555z M24.454,83.938V16h42.52v67.938H24.454z"/></g></g></svg>