<svg xmlns="http://www.w3.org/2000/svg" xmlns:xlink="http://www.w3.org/1999/xlink" xml:space="preserve" style="shape-rendering:geometricPrecision;text-rendering:geometricPrecision;image-rendering:optimizeQuality;" viewBox="0 0 6.82666 6.533325000000001" x="0px" y="0px" fill-rule="evenodd" clip-rule="evenodd" width="80px" height="80px"><defs><style type="text/css">
   
    .fil1 {fill:none}
    .fil0 {fill:#2d72b8}
   
  </style></defs><g><g><path class="fil0" d="M5.56268 4.19944c0.000610236,0.00663386 0.000240157,0.0131496 -0.00108661,0.0194173 0.00145276,-0.00699606 0.00168504,-0.013626 0.00108661,-0.0194173zm-0.00602362 0.0348504c-0.00386614,0.0083189 -0.00929921,0.0159252 -0.0161693,0.0223189 0.0073622,-0.00676378 0.0125433,-0.0144803 0.0161693,-0.0223189zm-0.0161575 0.022315c0,0 -0.000129921,3.93701e-006 -0.000129921,3.93701e-006 7.87402e-006,-3.93701e-006 0.00011811,0 0.000129921,-3.93701e-006zm-3.21147 1.2431c0.758437,0.00204724 1.51504,0.00217323 2.16542,0.00205118 0.0299134,-0.303181 0.252524,-0.539299 0.521937,-0.539299 0.269287,-7.87402e-006 0.491906,0.236 0.521937,0.538937 0.255181,-0.000125984 0.51048,-0.000240157 0.765657,-0.000240157 0.000496063,-0.0418465 0.00108661,-0.0836929 0.00181102,-0.124575 0.00265748,-0.165705 0.00518898,-0.323677 -0.00988976,-0.465744 -0.33778,0.0793504 -0.549551,-0.0841693 -0.67015,-0.242516 -0.0795906,-0.104437 -0.12976,-0.220209 -0.157858,-0.299079 -0.0165118,-0.046185 -0.0272559,-0.0809173 -0.0338858,-0.107449 -0.628413,-0.165217 -1.07596,-0.367091 -1.43714,-0.530016 -0.482256,-0.217555 -0.830661,-0.374693 -1.31871,-0.333087 -0.514091,0.0440197 -1.15965,0.305106 -2.15372,0.871906 -0.000472441,0.0491969 -0.00181102,0.110949 -0.00325591,0.179807 -0.000244094,0.0155551 -0.000606299,0.0314764 -0.000968504,0.0476378l0.318138 -3.93701e-006c0.0384764,0 0.0694567,0.0311181 0.0694567,0.0694685l7.87402e-006 0.456449c0,0.0383504 -0.031,0.0694685 -0.0694685,0.0694685l-0.315236 -3.93701e-006c0.00216929,0.0261654 0.00470079,0.0470354 0.00759449,0.0625906 0.024,0.1265 0.127835,0.338752 0.553173,0.338752 0.0675472,0.000362205 0.134949,0.000724409 0.202236,0.00108661 0.0322126,-0.299803 0.254579,-0.53339 0.521217,-0.53339 0.268457,-7.87402e-006 0.491067,0.23528 0.521697,0.537248zm1.85597 0.14098c-0.595134,0 -1.25902,-0.000362205 -1.92206,-0.00217717 -0.0382165,-0.000125984 -0.0692205,-0.0309882 -0.0693465,-0.0692165 -0.000712598,-0.258075 -0.174016,-0.467913 -0.386264,-0.467913 -0.210921,-3.93701e-006 -0.384217,0.208508 -0.38639,0.464898 -0.00023622,0.0381024 -0.0312323,0.0688583 -0.0694606,0.0688583 3.93701e-006,-3.93701e-006 -0.000122047,0 -0.000244094,0 -0.0892283,-0.000480315 -0.17848,-0.00096063 -0.26772,-0.00144882 -0.544724,-3.93701e-006 -0.663516,-0.315957 -0.689323,-0.451748 -0.00663386,-0.0349764 -0.0112165,-0.0855039 -0.0139882,-0.154484 3.93701e-006,-0.000366142 0,-0.000724409 0,-0.00108661 -0.00132677,-0.0382283 0.0285787,-0.0706654 0.066811,-0.0719961 0.00290157,-0.000122047 0.00590551,-0.00011811 0.0086811,0.000122047l0.313193 -3.93701e-006 0 -0.317524 -0.319461 0c-0.018685,0 -0.0365433,-0.00747638 -0.0495709,-0.0208661 -0.0130157,-0.0132638 -0.0202559,-0.0312283 -0.0198976,-0.0499252 0.00073622,-0.0408819 0.00157087,-0.0807992 0.00241339,-0.118665 0.00180709,-0.0886417 0.00337402,-0.165217 0.00337402,-0.217315 1.1811e-005,-0.0248425 0.0132677,-0.047874 0.0349764,-0.0602953 1.03242,-0.591283 1.70402,-0.863343 2.24561,-0.909531 0.524114,-0.0449882 0.905189,0.127106 1.38769,0.344783 0.364319,0.164366 0.817638,0.368898 1.4568,0.533031 0.0246024,0.00627165 0.0438976,0.025685 0.0500472,0.0504094 0.000728346,0.0028937 0.00120472,0.00566535 0.00156693,0.00855906 0.00446457,0.0218268 0.0830906,0.382051 0.329709,0.531102 0.123008,0.0745354 0.27122,0.083937 0.440295,0.0279803 0.0192992,-0.00638976 0.0403976,-0.00397638 0.0577638,0.0066378 0.017374,0.0104843 0.0293071,0.0280945 0.0325591,0.0481142 0.0282323,0.173295 0.0252047,0.364921 0.0218268,0.567882 -0.000948819,0.0629528 -0.00204724,0.127953 -0.00204724,0.191748 1.1811e-005,0.0383504 -0.0311142,0.0694646 -0.0694606,0.0694646 -0.300283,0 -0.600571,0.00011811 -0.90085,0.000244094 -0.0184528,-3.93701e-006 -0.0360591,-0.00735827 -0.0490827,-0.0202638 -0.0130118,-0.0130315 -0.0203819,-0.030752 -0.0203819,-0.0492008 -0.000106299,-0.258925 -0.173417,-0.46948 -0.386386,-0.46948 -0.212965,-3.93701e-006 -0.38639,0.210681 -0.38639,0.46972 0,0.0383465 -0.0309961,0.0695866 -0.0694606,0.0695866 -0.121441,0 -0.246862,0 -0.375535,0z"/><path class="fil0" d="M2.80611 3.77049c-0.0179606,0 -0.0359449,0.000362205 -0.0540354,0.00120472 -0.125657,0.00530709 -0.260004,0.0297874 -0.410748,0.0747677 -0.313421,0.0934567 -0.638189,0.253614 -0.902657,0.399047l2.66722 -0.00361417c-0.0704291,-0.0338937 -0.140614,-0.0687402 -0.20972,-0.10311 -0.245402,-0.121807 -0.499142,-0.247823 -0.740697,-0.317768 -0.116969,-0.0338898 -0.231783,-0.0505276 -0.349358,-0.0505276zm-1.63105 0.614307c-0.0313543,0 -0.0588622,-0.0209803 -0.067063,-0.051252 -0.00819291,-0.0303898 0.00494882,-0.0623465 0.0319606,-0.0781457 0.294744,-0.171969 0.735752,-0.415087 1.1617,-0.542075 0.16185,-0.0482402 0.30728,-0.0745236 0.444516,-0.080437 0.151953,-0.00651575 0.298472,0.0114567 0.44789,0.054748 0.253622,0.0733228 0.513016,0.20224 0.763854,0.326819 0.16413,0.0813976 0.333807,0.165697 0.497697,0.232142 0.0307598,0.0124173 0.0483622,0.0449843 0.0420866,0.0775472 -0.00638583,0.0326772 -0.0348504,0.0561969 -0.0681339,0.0561969l-3.2545 0.00445669c0,0 -7.87402e-006,0 0,0z"/><path class="fil0" d="M2.74412 4.38263c-0.0383504,0 -0.0694685,-0.0309961 -0.0694685,-0.0694646l3.93701e-006 -0.610933c0,-0.0383583 0.0311102,-0.0694646 0.0694606,-0.0694646 0.0383583,0 0.0694646,0.0311102 0.0694646,0.0694646l3.93701e-006 0.610933c0,0.0384685 -0.0311181,0.0694646 -0.0694646,0.0694646z"/><path class="fil0" d="M3.74941 2.50448c0.49902,0 0.799902,0.0179646 0.880098,0.0618622 0.117224,0.0641496 0.213213,0.125299 0.297988,0.179445 0.329232,0.209957 0.466949,0.297874 1.02711,0.0255669l-0.493709 -0.200913c-0.242638,-0.0987677 -0.314524,-0.405319 -0.243972,-0.644583 0.0574094,-0.194646 0.200185,-0.300524 0.363713,-0.269531 0.00277953,0.000598425 0.00542913,0.00120866 0.00820079,0.00217323l0.550528 0.175587c-0.14122,-0.257598 -0.315728,-0.419071 -0.520256,-0.480815 -0.29835,-0.0899646 -0.571504,0.0642756 -0.605272,0.0844173 -0.308965,0.256988 -1.66748,0.217189 -3.15285,0.149177 -0.312453,-0.0143543 -0.582358,-0.0267756 -0.736839,-0.0267756 -0.276756,0 -0.501921,0.225154 -0.501921,0.501921 7.87402e-006,0.276764 0.225154,0.501917 0.501921,0.501917 0.109024,0 0.361906,-0.00783858 0.681969,-0.0178465 0.814146,-0.0253307 1.46837,-0.0416024 1.94329,-0.0416024zm1.65167 0.57572c-0.0100118,0 -0.0199016,-0.000240157 -0.0296693,-0.000606299 -0.192583,-0.0086811 -0.336465,-0.100453 -0.518685,-0.216709 -0.0828346,-0.0529409 -0.176791,-0.112878 -0.289909,-0.17474 -0.028937,-0.0156811 -0.189819,-0.0514961 -1.05521,-0.0437756 -0.551594,0.0048189 -1.21367,0.0255669 -1.69714,0.0406378 -0.321264,0.0100039 -0.575118,0.0178504 -0.686307,0.0178504 -0.353339,-3.93701e-006 -0.640846,-0.287504 -0.640846,-0.640846 7.87402e-006,-0.353346 0.287504,-0.640846 0.640846,-0.640846 0.157618,0 0.416055,0.0118189 0.743228,0.0268937 0.553055,0.0253268 1.24141,0.0569213 1.84319,0.049685 0.857327,-0.0101339 1.13493,-0.0974409 1.21669,-0.168831 0.00253543,-0.00229528 0.00530709,-0.00422441 0.00820079,-0.00614961 0.013748,-0.00881102 0.342972,-0.216354 0.722004,-0.102992 0.281591,0.0841732 0.510244,0.320421 0.679917,0.701984 0.0110984,0.0249606 0.00651575,0.0541496 -0.0118189,0.0745315 -0.0182008,0.020374 -0.0467913,0.0280984 -0.0728386,0.0198976l-0.701736 -0.223949c-0.128791,-0.0214685 -0.183193,0.11348 -0.200799,0.172937 -0.0519685,0.176189 -0.00433858,0.408457 0.163043,0.476594l0.635067 0.258433c0.0249685,0.0101299 0.0418386,0.0340118 0.0431614,0.0610236 0.00134252,0.0270079 -0.0132638,0.0523425 -0.0371417,0.064878 -0.338138,0.176795 -0.566319,0.254098 -0.753236,0.254098z"/><path class="fil0" d="M4.69319 2.75181c-0.0263976,0 -0.0514961,-0.0150748 -0.0631929,-0.0405197 -0.0897205,-0.195732 -0.253492,-0.714409 0.160028,-1.30255 0.0222047,-0.0314843 0.0654843,-0.0389567 0.0968386,-0.0168858 0.0313661,0.0220669 0.0389528,0.0653622 0.0168858,0.0967205 -0.372154,0.529287 -0.227083,0.990929 -0.147488,1.16483 0.0160394,0.0348465 0.000602362,0.0760945 -0.034248,0.0920118 -0.00928346,0.00433858 -0.0191732,0.0063937 -0.0288228,0.0063937z"/><path class="fil0" d="M1.26104 1.88606c-0.0969528,0 -0.175949,0.0789921 -0.175949,0.175953 7.87402e-006,0.0970748 0.0789882,0.175945 0.175949,0.175945 0.0969606,0 0.175945,-0.0788661 0.175945,-0.175945 0,-0.0969606 -0.0789882,-0.175949 -0.175945,-0.175953zm0 0.490823c-0.173657,0 -0.314878,-0.141213 -0.314878,-0.31487 1.1811e-005,-0.173543 0.14122,-0.314874 0.314878,-0.314874 0.173665,-3.93701e-006 0.314874,0.141335 0.314874,0.314874 0,0.173657 -0.141217,0.314874 -0.314874,0.31487z"/><path class="fil0" d="M1.97907 1.97397c-0.0485945,0 -0.0881614,0.0394331 -0.0881614,0.0880354 3.93701e-006,0.0485945 0.0395551,0.0881575 0.0881535,0.0881575l2.09969 -7.87402e-006c0.0484921,0 0.0880315,-0.0395512 0.0880315,-0.0881496 3.93701e-006,-0.0486063 -0.0395512,-0.0880354 -0.0880315,-0.0880354l-2.09968 0zm2.09968 0.31511l-2.09968 0c-0.125185,0 -0.226969,-0.101898 -0.226969,-0.227075 3.93701e-006,-0.125185 0.101783,-0.226961 0.226961,-0.226961l2.09969 -3.93701e-006c0.125185,0 0.226965,0.101787 0.226965,0.226965l0 0c0,0.125177 -0.101787,0.227083 -0.226965,0.227075z"/></g></g><rect class="fil1" width="6.82666" height="6.82666"/></svg>