<svg xmlns="http://www.w3.org/2000/svg" data-name="Layer 1" viewBox="0 0 128 128" x="0px" y="0px" width="100px" height="100px" fill="#2d72b8" stroke='%232d72b8'><path d="M53.18036,93.196,42.60791,121.73158l-6.01367-8.57124a1.99987,1.99987,0,0,0-2.168-.77929L24.231,115.18817,35.59741,84.50934a20.11891,20.11891,0,0,1-1.46851-3.23063c-.07129-.18945-.15723-.41992-.24317-.63916-.34829-.06952-.698-.13251-1.04711-.19757L19.12451,117.4572a2.00007,2.00007,0,0,0,2.40625,2.623l12.59863-3.46873,7.39307,10.537a2.00018,2.00018,0,0,0,3.5127-.4541L57.15784,93.97467a8.52469,8.52469,0,0,1-1.82483-.10132A8.765,8.765,0,0,1,53.18036,93.196Z"/><path d="M95.16161,80.44271c-.34958.06506-.69962.12821-1.04832.19781-.08594.21875-.17187.44922-.24316.63867a20.1269,20.1269,0,0,1-1.46765,3.22972L103.769,115.18817l-10.19531-2.80711a2.00247,2.00247,0,0,0-2.168.77929l-6.01367,8.57124L74.81958,93.19587a8.76542,8.76542,0,0,1-2.15356.67749,8.63593,8.63593,0,0,1-1.47852.12744c-.11681,0-.22771-.01465-.34276-.01916l12.12012,32.71281a2.00026,2.00026,0,0,0,3.5127.4541l7.39307-10.537,12.59863,3.46873a2.00007,2.00007,0,0,0,2.40625-2.623Z"/><path d="M71.98216,89.93094c1.91711-.339,3.32256-1.86294,4.56716-3.30852a7.23038,7.23038,0,0,1,2.02441-1.896,7.42661,7.42661,0,0,1,2.85986.15527c1.7915.29541,3.82422.63183,5.56543-.36719,1.7627-1.01074,2.48779-2.94041,3.127-4.64255a7.18781,7.18781,0,0,1,1.26025-2.49022,7.34649,7.34649,0,0,1,2.71436-.80957c1.79395-.3291,3.82715-.70166,5.13135-2.2412,1.30615-1.541,1.32568-3.5947,1.34277-5.40671a7.16772,7.16772,0,0,1,.334-2.7827,7.28313,7.28313,0,0,1,2.24854-1.65526c1.58252-.92138,3.376-1.96532,4.07764-3.87449.69092-1.88182.00146-3.81-.60693-5.5112a7.21728,7.21728,0,0,1-.65332-2.75731,7.17307,7.17307,0,0,1,1.51758-2.27587C108.66748,48.65585,110,47.05528,110,45.00011s-1.33252-3.65574-2.50781-5.06735a7.18027,7.18027,0,0,1-1.51807-2.27635,7.22855,7.22855,0,0,1,.65381-2.75731c.60791-1.70116,1.29785-3.62888.60693-5.5112-.70166-1.90868-2.49561-2.95262-4.07812-3.874a7.2874,7.2874,0,0,1-2.248-1.6538,7.1811,7.1811,0,0,1-.3335-2.7827c-.01709-1.812-.03662-3.86619-1.34277-5.40768-1.3042-1.53905-3.3374-1.9121-5.13086-2.2412a7.3494,7.3494,0,0,1-2.71484-.80957A7.18512,7.18512,0,0,1,90.127,10.12923c-.63965-1.70214-1.36426-3.63181-3.12744-4.643-1.74072-.99951-3.77246-.66308-5.56543-.36719a7.41753,7.41753,0,0,1-2.85986.15478,7.22456,7.22456,0,0,1-2.0249-1.896C75.355,1.99061,74.002.41835,71.98291.06777c-1.95947-.34033-3.74121.65966-5.31152,1.54149A7.38119,7.38119,0,0,1,64,2.73816a7.38119,7.38119,0,0,1-2.67139-1.1289C59.7583.72792,57.9834-.27061,56.01758.06777c-2.01953.35058-3.37256,1.92284-4.56689,3.31a7.23038,7.23038,0,0,1-2.02441,1.896,7.36066,7.36066,0,0,1-2.85986-.15527c-1.792-.29541-3.82324-.63183-5.56543.36719-1.7627,1.01074-2.48779,2.94041-3.127,4.64255a7.18781,7.18781,0,0,1-1.26025,2.49022,7.34649,7.34649,0,0,1-2.71436.80957c-1.79395.3291-3.82715.70166-5.13135,2.2412-1.30615,1.541-1.32568,3.5947-1.34277,5.40671a7.16772,7.16772,0,0,1-.334,2.7827,7.28313,7.28313,0,0,1-2.24854,1.65526c-1.58252.92138-3.376,1.96532-4.07764,3.87449-.69092,1.88182-.00146,3.81.60693,5.5112a7.21728,7.21728,0,0,1,.65332,2.75731,7.17307,7.17307,0,0,1-1.51758,2.27587C19.33252,41.34438,18,42.945,18,45.00011s1.33252,3.65574,2.50781,5.06735a7.18027,7.18027,0,0,1,1.51807,2.27635,7.22855,7.22855,0,0,1-.65381,2.75731c-.60791,1.70116-1.29785,3.62888-.60693,5.5112.70166,1.90868,2.49561,2.95262,4.07813,3.874a7.2874,7.2874,0,0,1,2.248,1.6538,7.1811,7.1811,0,0,1,.3335,2.7827c.01709,1.812.03662,3.86619,1.34277,5.40768,1.3042,1.53905,3.3374,1.9121,5.13086,2.2412a7.3494,7.3494,0,0,1,2.71484.80957A7.18512,7.18512,0,0,1,37.873,79.871c.63965,1.70214,1.36426,3.63181,3.12744,4.643,1.74121.99951,3.77246.66308,5.56543.36719a7.37753,7.37753,0,0,1,2.85986-.15478,7.22456,7.22456,0,0,1,2.0249,1.896c1.19434,1.3872,2.54736,2.95945,4.56641,3.31,1.9585.33642,3.74072-.65966,5.31152-1.54149A7.38119,7.38119,0,0,1,64,87.26207a7.38117,7.38117,0,0,1,2.67138,1.1289C68.2806,89.29479,70.06942,90.26913,71.98216,89.93094Zm-3.35277-5.02774A9.752,9.752,0,0,0,64,83.26209a9.752,9.752,0,0,0-4.62939,1.6411c-.94043.52832-2.103,1.18945-2.66943,1.08788-.60645-.105-1.50049-1.14355-2.21826-1.978a9.51174,9.51174,0,0,0-3.69873-3.0493,9.72384,9.72384,0,0,0-4.87061-.0293c-1.07666.17871-2.418.3999-2.92334.10986-.51465-.29492-.99023-1.562-1.37256-2.57957a9.48848,9.48848,0,0,0-2.44482-4.15769,9.6449,9.6449,0,0,0-4.55273-1.66991c-1.07861-.19775-2.42041-.44384-2.80078-.89257-.37158-.439-.38428-1.78075-.39453-2.85936a9.492,9.492,0,0,0-.87891-4.7612,9.53722,9.53722,0,0,0-3.69043-3.09471c-.94971-.55273-2.13135-1.24072-2.33545-1.79589-.19092-.521.25781-1.77636.61865-2.78514a9.55427,9.55427,0,0,0,.82617-4.80026A9.39171,9.39171,0,0,0,23.582,47.5084C22.87744,46.66173,22,45.608,22,45.00011s.87744-1.66161,1.582-2.50829a9.39171,9.39171,0,0,0,2.38281-4.13962,9.55676,9.55676,0,0,0-.82617-4.79978c-.36084-1.00878-.81006-2.26415-.61865-2.78465.2041-.55615,1.38574-1.24413,2.33545-1.79686a9.53973,9.53973,0,0,0,3.69043-3.09568,9.48617,9.48617,0,0,0,.87939-4.7612c.01025-1.07861.02295-2.4204.39453-2.85887.38037-.44873,1.72266-.69482,2.80127-.89257a9.64313,9.64313,0,0,0,4.55225-1.66991A9.49881,9.49881,0,0,0,41.61865,11.535c.38232-1.01757.85791-2.28465,1.37256-2.57957.50439-.29053,1.84473-.06836,2.92285.10986a9.733,9.733,0,0,0,4.87012-.02881,9.51174,9.51174,0,0,0,3.69873-3.0493c.71777-.83447,1.61182-1.873,2.21875-1.978.55078-.09961,1.72754.55957,2.66895,1.08788A9.752,9.752,0,0,0,64,6.73814,9.752,9.752,0,0,0,68.62939,5.097c.94092-.52783,2.10449-1.1914,2.66943-1.08788.60645.105,1.50049,1.14355,2.21826,1.978a9.51174,9.51174,0,0,0,3.69873,3.0493,9.74606,9.74606,0,0,0,4.87061.0293c1.07666-.1792,2.41748-.40039,2.92334-.10986.51465.29492.99023,1.562,1.37256,2.57957a9.48848,9.48848,0,0,0,2.44482,4.15769,9.6449,9.6449,0,0,0,4.55273,1.66991c1.07861.19775,2.42041.44384,2.80078.89257.37158.439.38428,1.78075.39453,2.85936a9.492,9.492,0,0,0,.87891,4.7612,9.53722,9.53722,0,0,0,3.69043,3.09471c.94971.55273,2.13135,1.24072,2.33545,1.79589.19092.521-.25781,1.77636-.61865,2.78514a9.55427,9.55427,0,0,0-.82617,4.80026,9.39171,9.39171,0,0,0,2.38281,4.13962c.70459.84667,1.582,1.90038,1.582,2.50829s-.87744,1.66161-1.582,2.50829a9.39171,9.39171,0,0,0-2.38281,4.13962,9.55676,9.55676,0,0,0,.82617,4.79978c.36084,1.00878.81006,2.26415.61865,2.78465-.2041.55615-1.38574,1.24413-2.33545,1.79686A9.53973,9.53973,0,0,0,97.4541,64.125a9.48617,9.48617,0,0,0-.87939,4.7612c-.01025,1.07861-.02295,2.4204-.39453,2.85887-.38037.44873-1.72266.69482-2.80127.89257a9.64313,9.64313,0,0,0-4.55225,1.66991,9.49881,9.49881,0,0,0-2.44531,4.15769c-.38232,1.01757-.85791,2.28465-1.37256,2.57957-.50586.29-1.84619.06738-2.92285-.10986a9.72742,9.72742,0,0,0-4.87012.02881,9.51174,9.51174,0,0,0-3.69873,3.0493c-.71777.83447-1.61182,1.873-2.21875,1.978C70.751,86.09118,69.5708,85.43151,68.62939,84.90319Z"/><path d="M92,45.00011A28,28,0,1,0,64,72.99995,28.03137,28.03137,0,0,0,92,45.00011ZM64,69A23.99985,23.99985,0,1,1,88,45.00011,24.0268,24.0268,0,0,1,64,69Z"/><path d="M80.9043,40.08364a2.00037,2.00037,0,0,0-1.62207-1.36816l-9.32959-1.33056-4.166-8.28315a1.99964,1.99964,0,0,0-3.57324,0l-4.166,8.28315-9.32959,1.33056a1.99979,1.99979,0,0,0-1.1001,3.42527l6.72852,6.43648L52.75928,57.6558a1.99978,1.99978,0,0,0,2.88721,2.12157L64,55.46734l8.35352,4.31a2.03593,2.03593,0,0,0,2.10156-.16553,2.001,2.001,0,0,0,.78564-1.956l-1.58691-9.07856,6.72852-6.43648A2.00116,2.00116,0,0,0,80.9043,40.08364ZM70.11768,46.42442a1.99975,1.99975,0,0,0-.58789,1.78954l1.07666,6.1611L64.917,51.43953a2.06961,2.06961,0,0,0-1.834,0l-5.68945,2.93553,1.07666-6.1611a1.99975,1.99975,0,0,0-.58789-1.78954L53.356,42.09437l6.291-.897a1.99914,1.99914,0,0,0,1.50439-1.08154L64,34.45184l2.84863,5.664A1.99914,1.99914,0,0,0,68.353,41.1974l6.291.897Z"/></svg>