<svg xmlns="http://www.w3.org/2000/svg" version="1.1" viewBox="-5.0 -10.0 110.0 105.0" fill="#2d72b8" width="80px" height="80px">
 <path d="m22.555 66.883-1.6172 1.6172 10.496 10.496 1.6172-1.6172c-0.35547-0.24219-0.69141-0.51953-1.0039-0.83203l-8.6562-8.6562c-0.3125-0.3125-0.58984-0.64844-0.83203-1.0039zm12.535 9.2656c-0.57812-0.23828-1.1172-0.59375-1.5859-1.0625l-8.6562-8.6562c-0.95703-0.95703-1.4375-2.2227-1.4375-3.4844 0-1.2656 0.48047-2.5273 1.4375-3.4844l3.4844-3.4844 11.695 11.695v0.003906l3.9297 3.9297-3.4844 3.4844c-0.95703 0.95703-2.2227 1.4375-3.4844 1.4375v0.003906c-0.60938 0-1.2148-0.11328-1.7891-0.33594-0.035157-0.015624-0.070313-0.03125-0.10547-0.042968zm-11.461 8.4727c0 2.1289-0.8125 4.2578-2.4375 5.8828s-3.7539 2.4375-5.8828 2.4375-4.2578-0.8125-5.8828-2.4375-2.4375-3.7539-2.4375-5.8828 0.8125-4.2578 2.4375-5.8828 3.7539-2.4375 5.8828-2.4375 4.2578 0.8125 5.8828 2.4375 2.4375 3.7539 2.4375 5.8828zm-0.97656-7.3438c-1.1289-1.1289-2.4531-1.9453-3.8633-2.4453l2.7812-2.7812 6.3086 6.3086-2.7812 2.7812c-0.5-1.4102-1.3164-2.7344-2.4453-3.8633zm-5.1641 5.1641c-0.60156-0.60156-1.3906-0.90234-2.1797-0.90234-0.78906 0-1.5781 0.30078-2.1797 0.90234-0.60156 0.60156-0.90234 1.3906-0.90234 2.1797 0 0.78906 0.30078 1.5781 0.90234 2.1797 0.60156 0.60156 1.3906 0.90234 2.1797 0.90234v0.003906c0.78516 0 1.5742-0.30078 2.1797-0.90625 0.60156-0.60156 0.90234-1.3906 0.90234-2.1797 0-0.78906-0.30078-1.5781-0.90234-2.1797zm1.4609-1.4609c-1.0039-1.0039-2.3203-1.5078-3.6406-1.5078-1.3164 0-2.6328 0.50391-3.6406 1.5078-1.0039 1.0039-1.5078 2.3203-1.5078 3.6406 0 1.3164 0.50391 2.6328 1.5078 3.6406 1.0039 1.0039 2.3203 1.5078 3.6406 1.5078v-0.003906c1.3203 0 2.6367-0.5 3.6406-1.5039 1.0039-1.0039 1.5078-2.3203 1.5078-3.6406 0-1.3164-0.50391-2.6328-1.5078-3.6406zm62.262-55.809c-1.4102-0.5-2.7344-1.3164-3.8633-2.4453-1.1289-1.1289-1.9453-2.4531-2.4453-3.8633l-2.1172 2.1172 6.3086 6.3086zm-2.4062-3.9023c-1.625-1.625-2.4375-3.7539-2.4375-5.8828 0-2.1289 0.8125-4.2578 2.4375-5.8828s3.7539-2.4375 5.8828-2.4375 4.2578 0.8125 5.8828 2.4375 2.4375 3.7539 2.4375 5.8828c0 2.1289-0.8125 4.2578-2.4375 5.8828s-3.7539 2.4375-5.8828 2.4375-4.2578-0.8125-5.8828-2.4375zm5.8828-0.73438c-1.3164 0-2.6328-0.50391-3.6406-1.5078-1.0039-1.0039-1.5078-2.3203-1.5078-3.6406 0-1.3164 0.50391-2.6328 1.5078-3.6406 1.0039-1.0039 2.3203-1.5039 3.6406-1.5039v-0.003907c1.3164 0 2.6328 0.50391 3.6406 1.5078 1.0039 1.0039 1.5078 2.3203 1.5078 3.6406 0 1.3164-0.50391 2.6328-1.5078 3.6406-1.0039 1.0039-2.3203 1.5078-3.6406 1.5078zm-2.1797-2.9688c0.60156 0.60156 1.3906 0.90234 2.1797 0.90234s1.5781-0.30078 2.1797-0.90234c0.60156-0.60156 0.90234-1.3906 0.90234-2.1797 0-0.78906-0.30078-1.5781-0.90234-2.1797-0.60156-0.60156-1.3906-0.90234-2.1797-0.90234v-0.003907c-0.78516 0-1.5742 0.30078-2.1797 0.90625-0.60156 0.60156-0.90234 1.3906-0.90234 2.1797 0 0.78906 0.30078 1.5781 0.90234 2.1797zm-5.7344 17.438c0.32422 0.42188 0.46875 0.91797 0.43359 1.3828-0.03125 0.42578-0.21094 0.8125-0.53125 1.0625l-0.007812 0.003906c-0.32031 0.24609-0.73438 0.32422-1.1445 0.25-0.35547-0.0625-0.70703-0.23828-0.99609-0.51562-0.019532-0.019531-0.035156-0.039062-0.054688-0.058594-0.015625-0.015625-0.03125-0.027344-0.046875-0.042968-0.039062-0.039063-0.074219-0.085938-0.10938-0.12891l-0.007812-0.007812-9.9102-12.805c-0.027344-0.042969-0.0625-0.085937-0.097657-0.125l-0.10547-0.14062c-0.32422-0.42188-0.46875-0.91797-0.43359-1.3828 0.03125-0.42578 0.21094-0.8125 0.53125-1.0625l0.007812-0.003906c0.32031-0.24609 0.73438-0.32422 1.1445-0.25 0.35547 0.0625 0.70703 0.23828 0.99609 0.51562 0.019532 0.019532 0.035156 0.039063 0.054688 0.058594 0.015625 0.015625 0.03125 0.027344 0.046875 0.042969 0.039062 0.039063 0.074219 0.085937 0.10938 0.12891l0.007812 0.007813 9.9102 12.805c0.027344 0.042969 0.0625 0.085938 0.097657 0.125l0.10938 0.14062zm-8.1641-13.906 0.68359-0.68359 10.223 10.223-1.9844 1.9844-8.918-11.52zm1.1445 20.926-0.10938-0.14063c-0.035156-0.039062-0.066406-0.078124-0.09375-0.12109l-9.9141-12.805-0.007813-0.011719c-0.035156-0.046874-0.070312-0.089843-0.10938-0.12891-0.015625-0.015625-0.03125-0.027344-0.046875-0.042968-0.019531-0.019532-0.035156-0.039063-0.054687-0.058594-0.28906-0.27734-0.64062-0.45312-0.99609-0.51562-0.41406-0.074219-0.82812 0.003906-1.1445 0.25l-0.007813 0.003906c-0.32031 0.25-0.5 0.64062-0.53125 1.0625-0.03125 0.46484 0.10938 0.96094 0.43359 1.3828l0.10547 0.14062c0.035156 0.039063 0.070312 0.082032 0.097656 0.125l9.8672 12.746c0.015624 0.015625 0.03125 0.035156 0.042968 0.054688l0.011719 0.015625-0.003906 0.003906c0.035156 0.042969 0.070312 0.085937 0.10938 0.12891 0.015625 0.015625 0.03125 0.027344 0.046875 0.042969 0.019531 0.019531 0.039062 0.039062 0.054687 0.058594 0.28906 0.27734 0.64062 0.44922 0.99609 0.51562 0.41406 0.074219 0.82812-0.003907 1.1445-0.25l0.007813-0.003907c0.32031-0.25 0.5-0.64062 0.53125-1.0625 0.03125-0.46484-0.10938-0.96094-0.43359-1.3828zm-8.1641-13.906 8.918 11.52 1.8477-1.8477-8.918-11.52zm1.1445 20.926c0.32422 0.42188 0.46875 0.91797 0.43359 1.3828-0.03125 0.42578-0.21094 0.8125-0.53125 1.0625l-0.007813 0.003907c-0.32031 0.24609-0.73438 0.32422-1.1445 0.25-0.35547-0.0625-0.70703-0.23828-0.99609-0.51563-0.015625-0.019531-0.035156-0.039062-0.054687-0.058593-0.015625-0.015625-0.03125-0.027344-0.046875-0.042969-0.039063-0.039062-0.074219-0.085938-0.10938-0.12891l0.003906-0.003906-0.011719-0.015626c-0.015625-0.019531-0.027343-0.035156-0.042969-0.054687l-9.8672-12.746c-0.027344-0.042969-0.0625-0.085937-0.097656-0.125l-0.10938-0.14062c-0.32422-0.42188-0.46875-0.91797-0.43359-1.3828 0.03125-0.42578 0.21094-0.8125 0.53125-1.0625l0.007812-0.003906c0.32031-0.24609 0.73438-0.32422 1.1445-0.25 0.35547 0.0625 0.70703 0.23828 0.99609 0.51562 0.015624 0.019532 0.035156 0.039063 0.054687 0.058594 0.015625 0.015625 0.03125 0.027344 0.046875 0.042969 0.039062 0.039063 0.074219 0.085937 0.10938 0.12891l-0.003906 0.003907 0.011719 0.015624c0.015624 0.019532 0.027343 0.035157 0.042968 0.054688l9.8672 12.746c0.027344 0.042968 0.0625 0.085937 0.097656 0.125l0.10547 0.14062zm-8.1641-13.906 8.918 11.52 1.8477-1.8477-8.918-11.52zm1.1445 20.926-10.129-13.082c-0.035157-0.042969-0.070313-0.085938-0.10547-0.125-0.015625-0.011719-0.03125-0.027344-0.042969-0.042969-0.019531-0.019531-0.035156-0.039062-0.054688-0.058594-0.28906-0.27734-0.64062-0.45312-0.99609-0.51562-0.41406-0.074219-0.82812 0.003907-1.1445 0.25l-0.007813 0.003907c-0.32031 0.25-0.5 0.64062-0.53125 1.0625-0.03125 0.46484 0.10938 0.96094 0.43359 1.3828l1.8125 2.3438c0.035156 0.039062 0.070312 0.082031 0.097656 0.12891l6.6797 8.6289c0.035157 0.039063 0.070313 0.082032 0.097657 0.12891l1.4258 1.8438 0.007812 0.011719c0.32031 0.41016 0.76172 0.66406 1.207 0.74609 0.39453 0.070313 0.78906 0.003907 1.1055-0.21875 0.03125-0.027343 0.066407-0.054687 0.10156-0.078125 0.28906-0.25 0.44922-0.62109 0.48047-1.0234 0.03125-0.46484-0.10938-0.96094-0.43359-1.3828zm-8.1641-13.906 1.8477-1.8477 8.918 11.52-1.8477 1.8477zm1.1445 20.926-1.8125-2.3438c-0.035156-0.039062-0.070312-0.082031-0.097656-0.12891l-6.6836-8.6328c-0.035156-0.039062-0.070312-0.082031-0.097656-0.125l-1.3828-1.7852c-0.015625-0.015625-0.03125-0.035156-0.042969-0.054687l-0.011719-0.015625 0.003906-0.003906c-0.32031-0.41016-0.75781-0.66406-1.207-0.74219-0.39453-0.070312-0.78906-0.003906-1.1016 0.21875l-0.003907 0.003906c-0.03125 0.027344-0.0625 0.050782-0.097656 0.074219-0.28906 0.25-0.44922 0.62109-0.48047 1.0234-0.03125 0.46484 0.10937 0.96094 0.43359 1.3828l1.8125 2.3438c0.035157 0.039063 0.070313 0.082031 0.097657 0.12891l6.6836 8.6328c0.035157 0.039062 0.070313 0.082031 0.097657 0.125l1.3828 1.7852c0.015625 0.015625 0.03125 0.035156 0.042969 0.054688l0.011719 0.015624-0.003907 0.003907c0.32031 0.41016 0.75781 0.66406 1.207 0.74219 0.41406 0.074219 0.82813-0.003906 1.1445-0.25l0.007812-0.003906c0.32031-0.25 0.5-0.64062 0.53125-1.0625 0.03125-0.46484-0.10938-0.96094-0.43359-1.3828zm-6.1211 0.57812-5.5078-7.1133-2.625 2.625 6.3086 6.3086 1.8242-1.8242zm-0.33594-12.281 5.5078 7.1133 1.8477-1.8477-5.5078-7.1133zm-1.9883-2.5664 0.71484 0.92188 1.8477-1.8477-1.3047-1.6875c-0.64844-0.83594-0.92969-1.8398-0.86328-2.7852 0.070313-0.98437 0.51562-1.9102 1.3203-2.5391l0.015625-0.011719c0.80078-0.62109 1.7969-0.82422 2.7578-0.65625 0.46094 0.082031 0.91797 0.25391 1.3398 0.50781l2.0859-2.0859c-0.38672-0.70703-0.55078-1.4883-0.5-2.2344 0.066407-0.94922 0.48438-1.8477 1.2383-2.4727 0.050781-0.046875 0.10156-0.089844 0.15625-0.125 0.79297-0.58594 1.7617-0.77344 2.6992-0.60938 0.46094 0.082031 0.91797 0.25391 1.3398 0.50781l2.0859-2.0859c-0.38672-0.70703-0.55078-1.4883-0.5-2.2344 0.066406-0.94922 0.48438-1.8438 1.2344-2.4727 0.050781-0.046875 0.10156-0.089844 0.16016-0.12891 0.78906-0.58594 1.7617-0.77344 2.6953-0.60547 0.46094 0.082031 0.91797 0.25391 1.3398 0.50781l2.0859-2.0859c-0.38672-0.70703-0.55078-1.4883-0.5-2.2344 0.066406-0.94922 0.48438-1.8477 1.2383-2.4727 0.050781-0.046874 0.10156-0.089843 0.15625-0.125 0.78906-0.58594 1.7617-0.77344 2.6992-0.60937 0.46094 0.082031 0.91797 0.25391 1.3398 0.50781l1.4297-1.4297c0.40234-0.40234 1.0586-0.40234 1.4609 0l1.2969 1.2969 3.0391-3.0391c-0.039063-0.36328-0.058594-0.73047-0.058594-1.0977 0-2.6562 1.0156-5.3164 3.0391-7.3438 2.0273-2.0273 4.6836-3.0391 7.3438-3.0391 2.6562 0 5.3164 1.0156 7.3438 3.0391 2.0273 2.0273 3.0391 4.6836 3.0391 7.3438 0 2.6562-1.0156 5.3164-3.0391 7.3438-2.0273 2.0273-4.6836 3.0391-7.3438 3.0391-0.36719 0-0.73438-0.019531-1.0977-0.058593l-3.0391 3.0391 1.1523 1.1523c0.40234 0.40234 0.40234 1.0586 0 1.4609l-2.9375 2.9375c0.38672 0.70703 0.55078 1.4883 0.5 2.2344-0.066407 0.94922-0.48438 1.8438-1.2344 2.4727-0.050782 0.046876-0.10547 0.089844-0.16016 0.12891-0.78906 0.58594-1.7617 0.77344-2.6953 0.60547-0.46094-0.082032-0.91797-0.25391-1.3398-0.50781l-2.0859 2.0859c0.38672 0.70703 0.55078 1.4883 0.5 2.2344-0.066406 0.94922-0.48438 1.8438-1.2344 2.4727-0.050781 0.046875-0.10156 0.089844-0.16016 0.12891-0.78906 0.58594-1.7617 0.77344-2.6953 0.60547-0.46094-0.082031-0.91797-0.25391-1.3398-0.50781l-2.0859 2.0859c0.38672 0.70703 0.55078 1.4883 0.5 2.2344-0.066407 0.94922-0.48438 1.8438-1.2344 2.4727-0.050782 0.046875-0.10156 0.089844-0.16016 0.12891-0.78906 0.58594-1.7617 0.77344-2.6953 0.60547-0.46094-0.082031-0.91797-0.25391-1.3398-0.50781l-2.0859 2.0859c0.38672 0.70703 0.55078 1.4883 0.5 2.2344-0.070313 0.98438-0.51562 1.9102-1.3203 2.5391l-0.015625 0.011719c-0.80078 0.62109-1.7969 0.82422-2.7578 0.65625-0.92578-0.16406-1.8242-0.68359-2.4727-1.5117l-0.015626-0.019531-0.75781-0.97656-1.8477 1.8477 1.3047 1.6875c0.64844 0.83594 0.92969 1.8398 0.86328 2.7852-0.066406 0.94922-0.48437 1.8477-1.2383 2.4727-0.050781 0.046874-0.10156 0.089843-0.15625 0.125-0.79297 0.58594-1.7617 0.77344-2.6992 0.60937-0.92578-0.16406-1.8242-0.68359-2.4727-1.5117l-0.003906-0.003906-0.003906 0.003906-0.011719-0.015625c-0.015625-0.019531-0.027344-0.039063-0.042969-0.058594l-0.71484-0.92188-1.6367 1.6367 3.9297 3.9297c0.40234 0.40234 0.40234 1.0586 0 1.4609l-4.2148 4.2148c-1.3594 1.3594-3.1523 2.0391-4.9453 2.0391v-0.003906c-0.65625 0-1.3164-0.089844-1.9531-0.27344l-2.875 2.875c-0.40234 0.40234-1.0586 0.40234-1.4609 0l-1.3633-1.3633-3.7031 3.7031c0.039063 0.36328 0.058594 0.73047 0.058594 1.0977 0 2.6562-1.0156 5.3164-3.0391 7.3438-2.0273 2.0273-4.6836 3.0391-7.3438 3.0391-2.6562 0-5.3164-1.0156-7.3438-3.0391-2.0273-2.0273-3.0391-4.6836-3.0391-7.3438 0-2.6562 1.0156-5.3164 3.0391-7.3438 2.0273-2.0273 4.6836-3.0391 7.3438-3.0391 0.36719 0 0.73437 0.019531 1.0977 0.058594l3.7031-3.7031-1.3633-1.3633c-0.40234-0.40234-0.40234-1.0586 0-1.4609l2.8711-2.8711c-0.18359-0.63672-0.27734-1.2969-0.27734-1.9531 0-1.793 0.67969-3.5859 2.0391-4.9453l4.2148-4.2148c0.40234-0.40234 1.0586-0.40234 1.4609 0l3.9297 3.9297 2.8125-2.8125-1.3047-1.6875c-0.64844-0.83594-0.92969-1.8398-0.86328-2.7852 0.070312-0.98438 0.51562-1.9102 1.3203-2.5391l0.003907-0.003907-0.003907-0.003906 0.011719-0.007813c0.023438-0.019531 0.046875-0.035156 0.070313-0.050781 0.78906-0.58203 1.7578-0.76953 2.6914-0.60156 0.92578 0.16406 1.8242 0.68359 2.4727 1.5117l0.003906 0.003906 0.003907-0.003906 0.011719 0.015624c0.015624 0.019532 0.027343 0.039063 0.042968 0.058594z" fill-rule="evenodd"/>
</svg>