<!DOCTYPE svg PUBLIC "-//W3C//DTD SVG 1.1//EN" "http://www.w3.org/Graphics/SVG/1.1/DTD/svg11.dtd">
<!-- Uploaded to: SVG Find, www.svgrepo.com, Transformed by: SVG Find Mixer Tools -->
<svg width="81px" height="81px" version="1.1" viewBox="144 144 512 512" xmlns="http://www.w3.org/2000/svg" fill="#2d72b8">
<g id="SVGRepo_bgCarrier" stroke-width="0"/>
<g id="SVGRepo_tracerCarrier" stroke-linecap="round" stroke-linejoin="round" stroke="#CCCCCC" stroke-width="1.024"/>
<g id="SVGRepo_iconCarrier"> <defs> <clipPath id="a"> <path d="m148.09 297h503.81v206h-503.81z"/> </clipPath> </defs> <g clip-path="url(#a)"> <path d="m646.3 337.5c-4.4922-5.3086-11.059-8.3555-18.016-8.3555h-70.848c-10.258 0-17.578 4.8867-24.051 9.1953-5.2734 3.5117-9.8242 6.5508-15.312 6.5508h-23.617v-15.742c0-17.367-14.121-31.488-31.488-31.488h-251.9c-17.367 0-31.488 14.121-31.488 31.488v31.488l-23.617-0.003906c-4.3516 0-7.8711 3.5273-7.8711 7.8711v62.977c0 4.3438 3.5195 7.8711 7.8711 7.8711h23.617v31.488c0 17.367 14.121 31.488 31.488 31.488h251.91c17.367 0 31.488-14.121 31.488-31.488v-15.742h23.617c5.4883 0 10.035 3.0391 15.312 6.5508 6.4648 4.3047 13.789 9.1953 24.043 9.1953h55.105c11.602 0 21.395-8.3047 23.293-19.734l15.742-94.465c1.1445-6.8594-0.77734-13.84-5.2734-19.145zm-482.47 86.109v-47.23h15.742v47.23zm314.88 47.234c0 8.6836-7.0625 15.742-15.742 15.742h-251.91c-8.6836 0-15.742-7.0625-15.742-15.742l-0.003906-141.7c0-8.6836 7.0625-15.742 15.742-15.742h251.91c8.6836 0 15.742 7.0625 15.742 15.742zm15.742-110.21h15.742v78.719h-15.742zm125.84 87.895c-0.62891 3.8086-3.8945 6.5703-7.7617 6.5703h-55.105c-5.4883 0-10.035-3.0391-15.312-6.5508-4.6758-3.1172-9.8164-6.5117-16.176-8.1641v-80.781c6.3594-1.6523 11.5-5.0469 16.176-8.1641 5.2773-3.5078 9.8281-6.5469 15.312-6.5469h70.848c2.3203 0 4.5117 1.0156 6.0078 2.7773 1.4961 1.7695 2.1406 4.1016 1.7617 6.3828z"/> </g> <path d="m407.87 368.51h-133.82c-3.8477 0-7.1328 2.7852-7.7617 6.5742l-7.8711 47.23c-0.38672 2.2812 0.26172 4.6133 1.7617 6.3828 1.4883 1.7734 3.6836 2.7891 6 2.7891h133.82c3.8477 0 7.1328-2.7852 7.7617-6.5742l7.8711-47.23c0.38672-2.2812-0.26172-4.6133-1.7617-6.3828-1.4883-1.7734-3.6875-2.7891-6-2.7891zm-14.539 47.23h-117.86l5.2422-31.488h117.87z"/> </g>
</svg>