<svg xmlns="http://www.w3.org/2000/svg" viewBox="0 0 512 512" x="0px" y="0px" width="80px" height="80px" fill="#2d72b8"><g><path d="M412.641,375.394,384.912,170.181A44.533,44.533,0,0,0,340.93,131.75H324.25v-15.5h5.761a29.28,29.28,0,0,0,28.806-34.516l-6.9-37.943A29.263,29.263,0,0,0,323.112,19.75H188.888a29.263,29.263,0,0,0-28.806,24.04l-6.9,37.945a29.279,29.279,0,0,0,28.806,34.515h5.761v15.5H171.07a44.533,44.533,0,0,0-43.982,38.431L99.359,375.394A60.251,60.251,0,0,0,120,492.25H392a60.251,60.251,0,0,0,20.641-116.856ZM180.25,220.25h151.5v71.5H180.25Zm0,80h151.5v59.813a11.7,11.7,0,0,1-11.687,11.687H191.937a11.7,11.7,0,0,1-11.687-11.687Zm0-88.5v-71.5h151.5v71.5Zm111.5-95.5v15.5h-71.5v-15.5Zm24,15.5h-15.5v-15.5h15.5ZM166.036,100.285a20.719,20.719,0,0,1-4.49-17.029l6.9-37.945A20.768,20.768,0,0,1,188.888,28.25H323.112a20.768,20.768,0,0,1,20.443,17.062l6.9,37.943a20.778,20.778,0,0,1-20.443,24.5H181.989A20.728,20.728,0,0,1,166.036,100.285ZM196.25,116.25h15.5v15.5h-15.5Zm-60.738,55.069A36.022,36.022,0,0,1,168,140.382c1.013-.087,3.75-.132,3.75-.132V360.063a20.21,20.21,0,0,0,20.187,20.187H320.063a20.21,20.21,0,0,0,20.187-20.187V140.25s2.737.045,3.75.132a36.022,36.022,0,0,1,32.488,30.937l27.239,201.586A60.27,60.27,0,0,0,392,371.75a43.4,43.4,0,0,0-42.442,34.8,6.494,6.494,0,0,1-6.35,5.2H168.792a6.493,6.493,0,0,1-6.349-5.2A43.4,43.4,0,0,0,120,371.75a60.27,60.27,0,0,0-11.727,1.155ZM392,483.75H120a51.75,51.75,0,0,1,0-103.5,34.877,34.877,0,0,1,34.108,27.963,15.016,15.016,0,0,0,14.684,12.037H343.208a15.017,15.017,0,0,0,14.685-12.038A34.875,34.875,0,0,1,392,380.25a51.75,51.75,0,0,1,0,103.5Z"/></g></svg>