<svg xmlns="http://www.w3.org/2000/svg" fill-rule="evenodd" clip-rule="evenodd" image-rendering="optimizeQuality" shape-rendering="geometricPrecision" text-rendering="geometricPrecision" viewBox="0 0 165 165" width="100px" height="100px"><path fill="#2d72b8" d="M96.987 148.075c-3.486,0 -6.974,-0.6637 -10.2625,-1.9995l-35.7295 -13.2532c-2.2987,-0.8486 -4.5725,-1.4743 -6.763,-1.8607 -4.4539,-0.8374 -9.0429,-0.9282 -13.6589,-0.2732l-6.1368 0.9171c-0.9745,0.1455 -1.8822,-0.5254 -2.0276,-1.499 -0.1443,-0.9735 0.526,-1.8801 1.4975,-2.0258l6.1544 -0.9198c5.0147,-0.7107 9.992,-0.6109 14.8118,0.2946 2.3804,0.4189 4.8603,1.102 7.3598,2.0248l35.7585 13.2627c0.0182,0.0069 0.0363,0.0138 0.0517,0.0209 6.216,2.5317 13.2536,2.3045 19.3112,-0.6259l50.2589 -24.297c1.4325,-0.6836 2.4988,-1.8837 3.0152,-3.3841 0.5167,-1.5081 0.4116,-3.1205 -0.2999,-4.5414 -1.0141,-2.007 -3.035,-3.259 -5.2657,-3.259 -0.479,-0.0003 -1.0239,0.0752 -1.5715,0.2175l-42.093 12.5109c-0.9439,0.2805 -1.9374,-0.2565 -2.2155,-1.1998 -0.2807,-0.9441 0.2567,-1.9355 1.2004,-2.2161l42.122 -12.5197c0.0183,-0.0056 0.0334,-0.0106 0.0518,-0.0152 0.8519,-0.2236 1.7169,-0.3415 2.5058,-0.3415 3.5805,-0.0004 6.8188,2.0004 8.4522,5.2207 1.1453,2.2917 1.3149,4.8822 0.4827,7.3019 -0.8282,2.4123 -2.5495,4.3442 -4.8451,5.4386l-50.2449 24.2925c-3.752,1.8154 -7.8367,2.729 -11.92,2.7287z" class="color000000 svgShape"/><path fill="#2d72b8" d="M104.137 126.216c-0.8577,0 -1.7308,-0.1298 -2.5906,-0.4027l-31.2159 -9.58c-0.9396,-0.2889 -1.4696,-1.2855 -1.1788,-2.2264 0.2878,-0.9408 1.2838,-1.4698 2.2245,-1.1805l31.2293 9.5841c2.5768,0.8143 5.283,-0.546 6.177,-3.0944 0.1922,-0.5755 0.2878,-1.1313 0.2878,-1.674 0.0005,-0.1892 0,-0.3675 -0.0156,-0.4888 -0.002,-0.0151 -0.003,-0.0294 -0.006,-0.0438 -0.1852,-1.5597 -1.0829,-2.9473 -2.4101,-3.7333l-38.3309 -15.5866c-8.4701,-3.47 -17.7958,-4.8337 -26.975,-3.9452l-16.9596 1.9433c-0.9745,0.1128 -1.8627,-0.5898 -1.9741,-1.5673 -0.11,-0.9784 0.5909,-1.8613 1.5686,-1.9736l16.9752 -1.9451c0.0098,-0.0013 0.0218,-0.0023 0.0311,-0.0033 9.7588,-0.9468 19.6763,0.503 28.6822,4.192l38.4402 15.6298c0.0681,0.0285 0.1354,0.0617 0.2005,0.0988 2.3583,1.3289 3.96,3.7393 4.2878,6.4505 0.0502,0.3643 0.0497,0.7013 0.0497,0.9726 0.0005,0.9314 -0.1547,1.8562 -0.4794,2.8267 -1.2407,3.5426 -4.4985,5.7473 -8.0193,5.7473l0.0014 -0.0001z" class="color000000 svgShape"/><path fill="#2d72b8" d="M12.4439 135.135l4.6541 0c2.9166 0 5.289-2.3738 5.289-5.2915l.0014-35.8267c0-2.9173-2.3742-5.2906-5.2916-5.2906l-4.6529-.0004 0 46.4092zm4.6541 3.5633l-6.4361 0c-.9857 0-1.7821-.7971-1.7821-1.7812l.0001-49.9733c0-.9843.7951-1.7816 1.782-1.7816l6.4361-.0004c4.881 0 8.853 3.9727 8.853 8.8556l.0014 35.8259c0 4.8831-3.9736 8.8554-8.8556 8.8554l.0012-.0004zM57.0745 79.0788l94.3317 0 0-50.1931-94.3317 0 0 50.1931zm94.5238 3.564l-94.7494 0c-1.8404 0-3.3388-1.513-3.3388-3.3732l.0004-50.5746c0-1.86 1.5126-3.3729 3.3749-3.3729l94.7129-.0004c1.8586 0 3.3712 1.5137 3.3712 3.3739l.0007 50.5739c0 1.86-1.5136 3.3735-3.3719 3.3733z" class="color000000 svgShape"/><path fill="#2d72b8" d="M74.6064 70.6617l59.1998 0c0.7823,-4.4536 4.4508,-7.9733 9.0759,-8.7025l0.0011 -15.9879c-2.2498,-0.3516 -4.3259,-1.3676 -5.975,-2.9474 -1.6543,-1.5849 -2.7256,-3.5838 -3.103,-5.7561l-59.1947 -0.0005c-0.3745,2.1907 -1.4335,4.2058 -3.0731,5.8011 -1.6575,1.6137 -3.7466,2.6273 -6.0111,2.9403l0.0002 15.9135c2.2526,0.3167 4.3371,1.3342 6.0014,2.9544 1.6431,1.5974 2.7041,3.6073 3.0785,5.7851zm60.8271 3.5639l-62.4575 0c-0.4732,0 -0.925,-0.1875 -1.2593,-0.5217 -0.3333,-0.3344 -0.5227,-0.7873 -0.5227,-1.26 0,-1.8832 -0.7642,-3.6633 -2.1502,-5.0125 -1.4138,-1.3758 -3.2763,-2.1041 -5.25,-2.0478 -0.4823,0.0149 -0.9468,-0.1685 -1.2902,-0.504 -0.3462,-0.3359 -0.5414,-0.7962 -0.5414,-1.2774l0.0003 -19.2751c0,-0.481 0.1945,-0.9412 0.5411,-1.2769 0.3443,-0.336 0.8229,-0.517 1.2902,-0.504 1.9833,0.0545 3.8579,-0.6673 5.2593,-2.0322 1.3807,-1.3436 2.1409,-3.1291 2.1409,-5.0281 0,-0.4732 0.1887,-0.9259 0.5227,-1.26 0.335,-0.3347 0.7857,-0.5221 1.2593,-0.5221l62.4575 -0.0005c0.4736,0 0.927,0.1883 1.2613,0.5226 0.3343,0.3336 0.5197,0.7873 0.5197,1.26 0.001,1.8691 0.7671,3.6324 2.1562,4.9641 1.4116,1.351 3.2918,2.0953 5.2934,2.0953 0.4744,-0.0002 0.925,0.1879 1.2593,0.522 0.3343,0.334 0.5227,0.7873 0.5227,1.26l0.0011 19.2746c0,0.9842 -0.7993,1.7823 -1.7831,1.7823 -4.1073,-0.0003 -7.4496,3.1671 -7.4496,7.0597 0.001,0.9841 -0.7953,1.782 -1.782,1.782l0.001 -0.0003z" class="color000000 svgShape"/><path fill="#2d72b8" d="M104.204 43.7396c-5.6452,0 -10.2433,4.5951 -10.2433,10.2429 0.0011,5.6474 4.5974,10.2428 10.2433,10.2428 5.6496,-0.0004 10.2434,-4.5948 10.2434,-10.2428 0.0003,-5.648 -4.5941,-10.2427 -10.2434,-10.2429zm0 24.0493c-7.6124,0 -13.8041,-6.1932 -13.8041,-13.8064 0.0007,-7.6131 6.1907,-13.8064 13.8041,-13.8064 7.6139,-0.0005 13.8074,6.1934 13.8074,13.8064 0.0003,7.6125 -6.1935,13.8068 -13.8074,13.8064z" class="color000000 svgShape"/><path fill="#2d72b8" d="M100.068 51.5901c-.469 0-.9282-.1883-1.2623-.5224-.0798-.0811-.1547-.1702-.2197-.2692-.0646-.0959-.1205-.2011-.1639-.3063-.0456-.1084-.0806-.2196-.102-.3341-.0242-.1147-.0341-.232-.0341-.3497 0-.1144.0093-.2319.0341-.3464.0217-.1147.0556-.2258.102-.3342.0435-.1084.099-.2104.1639-.3093.0663-.0963.1392-.1887.2197-.2692.4159-.4145 1.0301-.6033 1.6089-.4857.1158.0217.2256.0557.334.099.1089.0459.2102.1021.3062.1639.0993.065.1887.1393.2722.2228.0845.0803.1579.1733.2227.2692.0623.0986.1176.2011.1642.3093.0442.1082.0774.2198.0989.3342.026.1143.0372.2321.0372.3464 0 .4703-.1919.9314-.523 1.2593-.0824.0832-.1729.1577-.2722.2227-.0958.0644-.1979.1206-.3062.1639-.1084.0433-.2196.0805-.334.1021-.114.0212-.2322.034-.3466.0337zM108.344 59.9029c-.1182 0-.2359-.0119-.3505-.0366-.1143-.0219-.2259-.0557-.3339-.099-.1049-.0469-.2105-.1022-.3064-.164-.0977-.0652-.1889-.1423-.2724-.2228-.0802-.084-.1547-.1733-.2196-.2723-.0638-.0963-.1207-.1979-.1638-.3062-.0463-.1083-.0805-.2197-.1021-.3341-.0207-.1146-.034-.232-.034-.3465.0007-.1182.0123-.2351.034-.3497.0225-.1144.0558-.2257.1021-.3341.0442-.1054.0989-.2103.1638-.3062.0656-.0992.1394-.1887.2196-.2722.4153-.4118 1.0303-.6034 1.6089-.4858.1152.0212.2259.0557.3341.1022.1096.0429.2105.0989.3062.1639.1.0648.1889.1392.2724.2197.0837.0832.1577.1733.2226.2722.0631.0957.1177.2012.1642.3062.0436.1083.0775.2198.1019.3341.0224.1146.0342.2321.0342.3497.0007.4665-.1919.9282-.5229 1.2591-.0833.0804-.1733.1579-.2724.2228-.095.0615-.1978.1175-.3062.164-.1075.0429-.2196.0773-.3341.099-.1146.0247-.2321.0371-.3464.0371l.0007-.0005zM100.245 59.7254c-.4579 0-.9131-.1738-1.2597-.5218-.6949-.6964-.6961-1.8241 0-2.5198l7.9576-7.9581c.696-.6961 1.8217-.6955 2.5176.0006.697.6955.6963 1.8241 0 2.5198l-7.9569 7.9572c-.3451.348-.8043.5222-1.2586.5221zM78.0687 51.6973c-1.2586 0-2.2836 1.0252-2.2836 2.2852.0003 1.26 1.0239 2.2851 2.2833 2.2851 1.263-.0005 2.2862-1.0249 2.2862-2.2851 0-1.2605-1.0241-2.2849-2.2859-2.2852zm0 8.1338c-3.223 0-5.8476-2.6233-5.8476-5.8486.0003-3.2256 2.6235-5.8489 5.8473-5.8489 3.2274-.0002 5.8502 2.6237 5.8502 5.8489 0 3.2251-2.6235 5.8491-5.8499 5.8486zM130.379 51.6973c-1.2628 0-2.2877 1.0252-2.2877 2.2852.0002 1.26 1.024 2.2851 2.2863 2.2851 1.2598-.0005 2.2831-1.0249 2.2831-2.2851 0-1.2605-1.024-2.2849-2.2831-2.2849l.0014-.0003zm0 8.1338c-3.2273 0-5.8518-2.6233-5.8518-5.8486.0003-3.2256 2.6235-5.8489 5.8504-5.8489 3.2242-.0002 5.8471 2.6237 5.8471 5.8489 0 3.2251-2.6234 5.8491-5.8471 5.8491l.0014-.0005z" class="color000000 svgShape"/><rect width="100px" height="100px" fill="none"/></svg>