<svg xmlns="http://www.w3.org/2000/svg" viewBox="0 0 48 48" id="cargear" width="80px" height="80px">
  <path d="M24 0C10.751 0 0 10.751 0 24s10.751 24 24 24 24-10.751 24-24S37.249 0 24 0zm0 1c12.708 0 23 10.292 23 23 0 12.709-10.292 23-23 23S1 36.709 1 24C1 11.292 11.292 1 24 1zM11.492 9.977v.002a.5.5 0 0 0-.492.507v4a.5.5 0 1 0 1 0v-.793l1.146 1.147a.5.5 0 1 0 .708-.707l-1.166-1.166A1.503 1.503 0 0 0 14 11.487c0-.823-.678-1.5-1.5-1.5H11.592a.5.5 0 0 0-.1-.01zm21.33.01v.007a.5.5 0 0 0-.492.42l-.326 2.002a.5.5 0 0 0 .906.363.668.668 0 0 1 .926.098.674.674 0 0 1-.05.934.666.666 0 0 1-.934-.01.5.5 0 1 0-.694.72c.64.618 1.665.623 2.313.014.647-.61.702-1.634.125-2.31a1.668 1.668 0 0 0-1.455-.577l.107-.662h1.25a.5.5 0 1 0 0-1h-1.676zm-13.334.007a.5.5 0 0 0-.066.01.5.5 0 0 0-.03 0 .5.5 0 0 0-.003 0 .5.5 0 0 0-.043.012.5.5 0 0 0-.004 0 .5.5 0 0 0-.088.039.5.5 0 0 0-.022.013.5.5 0 0 0-.021.014.5.5 0 0 0-.002 0 .5.5 0 0 0-.04.031.5.5 0 0 0-.026.026.5.5 0 0 0-.006.01l-.994.982a.5.5 0 1 0 .703.71l.154-.15v2.795a.5.5 0 1 0 1 0V10.5a.5.5 0 0 0-.002-.049.5.5 0 0 0-.008-.047.5.5 0 0 0-.011-.047.5.5 0 0 0-.016-.046.5.5 0 0 0-.022-.045.5.5 0 0 0-.056-.084.5.5 0 0 0-.002 0 .5.5 0 0 0-.031-.032.5.5 0 0 0-.077-.062.5.5 0 0 0-.002 0 .5.5 0 0 0-.04-.024.5.5 0 0 0-.003 0 .5.5 0 0 0-.043-.02.5.5 0 0 0-.001 0 .5.5 0 0 0-.016-.009.5.5 0 0 0-.031-.01.5.5 0 0 0-.002 0 .5.5 0 0 0-.096-.02.5.5 0 0 0-.002 0 .5.5 0 0 0-.049 0 .5.5 0 0 0-.002 0v-.01zm6.871.008v.002a1.504 1.504 0 0 0-1.357 1.494.5.5 0 1 0 1 0 .498.498 0 0 1 .853-.353.497.497 0 0 1 .108.544.496.496 0 0 1-.461.309.5.5 0 0 0-.135.016.5.5 0 0 0-.013 0 .5.5 0 0 0-.034.011.5.5 0 0 0-.076.037.5.5 0 0 0-.021.012.5.5 0 0 0-.004 0 .5.5 0 0 0-.03.024.5.5 0 0 0-.03.025.5.5 0 0 0-.013.012.5.5 0 0 0-.015.017.5.5 0 0 0-.02.022.5.5 0 0 0-.01.012.5.5 0 0 0-.019.027.5.5 0 0 0-.016.021.5.5 0 0 0-.007.016.5.5 0 0 0-.014.023.5.5 0 0 0-.01.024.5.5 0 0 0-.008.02.5.5 0 0 0-.007.019.5.5 0 0 0-.004.016.5.5 0 0 0-.018.087.5.5 0 0 0-.002.03.5.5 0 0 0-.002.023.5.5 0 0 0 .002.022.5.5 0 0 0 .002.029.5.5 0 0 0 0 .01.5.5 0 0 0 .006.035.5.5 0 0 0 .012.047.5.5 0 0 0 .01.027.5.5 0 0 0 .01.025.5.5 0 0 0 .009.022.5.5 0 0 0 .014.023.5.5 0 0 0 .007.016.5.5 0 0 0 .016.023.5.5 0 0 0 .01.012.5.5 0 0 0 .09.098.5.5 0 0 0 .007.01.5.5 0 0 0 .03.02.5.5 0 0 0 .025.013.5.5 0 0 0 .018.012.5.5 0 0 0 .013.01.5.5 0 0 0 .036.019.5.5 0 0 0 .033.012.5.5 0 0 0 .021 0 .5.5 0 0 0 .004 0 .5.5 0 0 0 .033.01.5.5 0 0 0 .034.01.5.5 0 0 0 .03 0 .5.5 0 0 0 .036 0c.204 0 .383.12.46.308.079.188.037.4-.107.545a.497.497 0 0 1-.544.109.496.496 0 0 1-.309-.461.5.5 0 1 0-1 0c0 .605.367 1.155.926 1.387.559.231 1.206.101 1.634-.326a1.503 1.503 0 0 0 .325-1.635 1.482 1.482 0 0 0-.282-.428c.115-.126.214-.263.282-.426a1.503 1.503 0 0 0-1.528-2.068zM12 10.986h.5c.286 0 .5.215.5.5 0 .286-.214.5-.5.5H12v-1zm.5 5.006v.006a2.507 2.507 0 0 0-2.5 2.5c.001.769.407 1.441 1 1.91v4.09a.5.5 0 0 0 .5.5H18v1.588c-.594.469-.999 1.141-1 1.91 0 1.375 1.125 2.5 2.5 2.5s2.5-1.125 2.5-2.5c0-.77-.406-1.444-1-1.914v-1.586h4v1.588c-.594.469-.999 1.141-1 1.91 0 1.375 1.125 2.5 2.5 2.5s2.5-1.125 2.5-2.5c0-.77-.406-1.444-1-1.914v-1.586h4v1.586c-.594.47-.999 1.143-1 1.912 0 1.375 1.125 2.5 2.5 2.5s2.5-1.125 2.5-2.5c0-.77-.406-1.446-1-1.916V20.404c.594-.47 1-1.142 1-1.912 0-1.375-1.125-2.5-2.5-2.5a2.508 2.508 0 0 0-2.5 2.5c.001.769.407 1.44 1 1.908v1.592h-4v-1.588c.594-.47 1-1.142 1-1.912 0-1.375-1.125-2.5-2.5-2.5a2.508 2.508 0 0 0-2.5 2.5c.001.769.407 1.44 1 1.908v1.592h-4v-1.588c.594-.47 1-1.142 1-1.912 0-1.375-1.125-2.5-2.5-2.5a2.508 2.508 0 0 0-2.5 2.5c.001.769.407 1.44 1 1.908v1.592h-4v-1.588c.594-.47 1-1.142 1-1.912 0-1.375-1.125-2.5-2.5-2.5zm0 1.002c.834 0 1.5.666 1.5 1.5 0 .536-.286 1.029-.75 1.297a.5.5 0 0 0-.25.434v2.27a.5.5 0 0 0 .5.5h5a.5.5 0 0 0 .5-.5v-2.272a.5.5 0 0 0-.25-.434 1.499 1.499 0 0 1 .75-2.795c.834 0 1.5.666 1.5 1.5 0 .536-.286 1.029-.75 1.297a.5.5 0 0 0-.25.434v2.27a.5.5 0 0 0 .5.5h5a.5.5 0 0 0 .5-.5v-2.272a.5.5 0 0 0-.25-.434 1.499 1.499 0 0 1 .75-2.795c.834 0 1.5.666 1.5 1.5 0 .536-.286 1.029-.75 1.297a.5.5 0 0 0-.25.434v2.27a.5.5 0 0 0 .5.5h5a.5.5 0 0 0 .5-.5v-2.272a.5.5 0 0 0-.25-.434 1.499 1.499 0 0 1 .75-2.795c.834 0 1.5.666 1.5 1.5 0 .536-.286 1.029-.75 1.297a.5.5 0 0 0-.25.434v6.539a.5.5 0 0 0 .25.431 1.5 1.5 0 0 1 .75 1.3c0 .833-.666 1.5-1.5 1.5s-1.5-.667-1.5-1.5c0-.536.286-1.03.75-1.298a.5.5 0 0 0 .25-.431v-2.272a.5.5 0 0 0-.5-.5h-5a.5.5 0 0 0-.5.5v2.27a.5.5 0 0 0 .25.431 1.5 1.5 0 0 1 .75 1.3c0 .833-.666 1.5-1.5 1.5s-1.5-.667-1.5-1.5c0-.536.286-1.03.75-1.298a.5.5 0 0 0 .25-.431v-2.272a.5.5 0 0 0-.5-.5h-5a.5.5 0 0 0-.5.5v2.27a.5.5 0 0 0 .25.431 1.5 1.5 0 0 1 .75 1.3c0 .833-.666 1.5-1.5 1.5s-1.5-.667-1.5-1.5c0-.536.286-1.03.75-1.298a.5.5 0 0 0 .25-.431v-2.272a.5.5 0 0 0-.5-.5H12v-3.771a.5.5 0 0 0-.25-.434 1.499 1.499 0 0 1-.75-1.295 1.492 1.492 0 0 1 1.5-1.498v-.002zM26.355 31.98a.5.5 0 0 0-.466.366l-.875 3a.5.5 0 0 0 .48.64h1.5v.5a.5.5 0 1 0 1 0v-.892a.5.5 0 0 0 0-.221v-1.805a.5.5 0 1 0-1 0v1.418h-.832l.688-2.359a.5.5 0 0 0-.495-.647zm7.145.01c-.822 0-1.5.678-1.5 1.5v2a.5.5 0 0 0 .012.115A1.504 1.504 0 0 0 33.5 36.99c.823 0 1.5-.677 1.5-1.5 0-.822-.677-1.5-1.5-1.5-.176 0-.343.035-.5.092v-.592c0-.285.214-.5.5-.5.286 0 .5.215.5.5a.5.5 0 1 0 1 0c0-.822-.678-1.5-1.5-1.5zM19.48 32c-.822 0-1.5.677-1.5 1.5a.5.5 0 1 0 1 0c0-.286.215-.5.5-.5.286 0 .5.214.5.5a.82.82 0 0 1-.203.578c-.132.167-.344.334-.593.522-.25.187-.535.395-.776.697-.24.302-.42.717-.42 1.203a.5.5 0 0 0 .5.5h2a.5.5 0 1 0 0-1h-1.326c.016-.023.01-.057.027-.08.133-.167.347-.334.596-.522.25-.187.535-.395.776-.697.24-.302.42-.715.42-1.201 0-.823-.678-1.5-1.5-1.5zm14.02 2.986c.282 0 .5.218.5.5 0 .282-.218.5-.5.5a.493.493 0 0 1-.5-.5c0-.282.218-.5.5-.5z" color="#000" font-family="sans-serif" font-weight="400" overflow="visible" style="line-height:normal;text-indent:0;text-align:start;text-decoration-line:none;text-decoration-style:solid;text-decoration-color:#000;text-transform:none;block-progression:tb;isolation:auto;mix-blend-mode:normal" fill="#2d72b8" class="color000000 svgShape"></path>
</svg>
