<svg xmlns="http://www.w3.org/2000/svg" viewBox="0 0 24 24" id="HondaCar" width="100px" height="100px">
  <path d="M15.93 21.86a.5.5 0 0 1-.481-.363 96.048 96.048 0 0 1-.38-1.395c-.711-2.664-.724-2.715-3.078-2.762-2.367.048-2.418.244-3.036 2.65-.112.438-.241.938-.402 1.507a.5.5 0 1 1-.963-.274c.159-.56.286-1.051.396-1.482.681-2.646.982-3.34 4.005-3.401 3.031.061 3.271.608 4.044 3.505.108.405.229.862.377 1.378a.501.501 0 0 1-.482.637zm3.321-.37a.501.501 0 0 1-.497-.564C19.391 15.985 19.903 8.713 20 3.241c.005-.276.256-.462.509-.491a.5.5 0 0 1 .491.509c-.098 5.504-.613 12.822-1.254 17.795a.5.5 0 0 1-.495.436zm-14.502 0a.5.5 0 0 1-.495-.436C3.545 15.547 3.051 7.528 3 3.256a.5.5 0 0 1 .494-.506c.254-.047.503.218.506.494.051 4.244.541 12.211 1.246 17.682a.5.5 0 0 1-.497.564zm7.266-6.98c-.381-.01-.732-.041-1.054-.072-2.399-.248-3.072-2.619-3.563-4.351l-.048-.17c-.346-1.21-.715-2.639-1.077-4.039-.267-1.031-.529-2.046-.775-2.946a.501.501 0 0 1 .965-.264c.247.904.511 1.924.778 2.96.36 1.392.727 2.812 1.07 4.015l.049.171c.459 1.618.979 3.451 2.702 3.628.297.029.625.058.953.067.299-.009.627-.038.927-.067 1.788-.185 2.246-1.675 3.559-6.817.295-1.154.63-2.469 1.037-3.957a.5.5 0 0 1 .965.263c-.405 1.482-.739 2.791-1.033 3.94-1.279 5.013-1.863 7.3-4.427 7.565-.325.033-.677.064-1.028.074z" fill="#2d72b8" class="color000000 svgShape"></path>
  <path d="M12.003 22c-4.736-.023-8.807-.043-10.361-2.385-1.604-2.419-2.705-13.19-.198-15.739C3.288 2.003 9.055 2.001 11.826 2H12c8.772.007 11.635.476 11.958 6.026.094 1.596.015 3.16-.082 4.755-.546 8.827-2.727 9.174-11.873 9.219zM12 3h-.174c-2.221.001-8.119.003-9.669 1.577-1.982 2.014-1.18 12.225.319 14.485 1.259 1.897 5.267 1.917 9.509 1.938 8.908-.044 10.398-.278 10.894-8.279.095-1.563.172-3.095.082-4.636C22.703 3.672 21.269 3.007 12 3z" fill="#2d72b8" class="color000000 svgShape"></path>
</svg>
