<svg xmlns="http://www.w3.org/2000/svg" viewBox="0 0 24 24" id="Suzuki" width="100px" height="100px">
  <path d="M11.966 24a.494.494 0 0 1-.286-.09L.214 15.914a.5.5 0 0 1-.024-.803c.224-.177 5.538-4.304 9.656-1.729a.499.499 0 1 1-.529.848c-2.823-1.764-6.552.342-7.948 1.27l10.535 7.347c3.894-3.913 8.453-5.887 10.416-6.608L8.474 6.71a.5.5 0 1 1 .566-.824l14.646 10.081a.51.51 0 0 1 .234.444.496.496 0 0 1-.351.462c-.062.019-6.373 1.905-11.244 6.975a.497.497 0 0 1-.359.152z" fill="#2d72b8" class="color000000 svgShape"></path>
  <path d="M15.243 18.202a.49.49 0 0 1-.283-.088L.313 8.034a.51.51 0 0 1-.234-.444.496.496 0 0 1 .351-.462C.492 7.109 6.803 5.223 11.674.153A.498.498 0 0 1 12.32.09l11.466 7.996a.501.501 0 0 1 .013.811c-.23.172-5.695 4.181-9.807 1.611a.5.5 0 0 1 .529-.849c2.832 1.769 6.647-.265 8.093-1.171L12.096 1.152C8.202 5.065 3.643 7.039 1.68 7.76l13.847 9.53a.5.5 0 0 1-.284.912z" fill="#2d72b8" class="color000000 svgShape"></path>
</svg>
