<svg xmlns="http://www.w3.org/2000/svg" viewBox="0 0 24 24" id="Renault" width="90px" height="90px">
  <path d="M14.31 24H9.719c-.604 0-.828-.201-1.032-.571l-.306-.543a.5.5 0 0 1 0-.491l5.867-10.422-2.622-4.647a.5.5 0 0 1 0-.491l3.199-5.69a.5.5 0 0 1 .872-.001l5.586 9.908c.32.568.288 1.33-.083 1.988l-5.831 10.347c-.253.447-.539.613-1.059.613zm-4.92-1.361.171.303a.975.975 0 0 0 .031.058c.017-.004.06 0 .127 0h4.591a.645.645 0 0 0 .134-.009c-.001-.005.019-.033.054-.095l5.831-10.347c.194-.344.228-.749.083-1.006l-5.149-9.135-2.627 4.672 2.622 4.647a.5.5 0 0 1 0 .491L9.39 22.639z" fill="#2d72b8" class="color000000 svgShape"></path>
  <path d="M8.816 23.14a.5.5 0 0 1-.436-.254l-5.694-10.1c-.313-.558-.188-1.289.062-1.733L8.602.671C8.853.226 9.233 0 9.733 0h4.563c.501 0 .882.226 1.133.671l.267.473a.5.5 0 0 1 0 .491L9.861 11.974l2.629 4.662a.5.5 0 0 1 0 .491l-3.238 5.758a.5.5 0 0 1-.436.255zM9.733 1c-.13 0-.181.021-.26.162L3.62 11.543c-.131.233-.16.578-.062.751l5.258 9.326 2.665-4.739-2.629-4.663a.499.499 0 0 1 .001-.492L14.687 1.39l-.128-.228c-.08-.141-.13-.162-.262-.162H9.733z" fill="#2d72b8" class="color000000 svgShape"></path>
</svg>
